<?xml version="1.0" encoding="utf-8"?>
<!-- Generator: Adobe Illustrator 19.1.1, SVG Export Plug-In . SVG Version: 6.00 Build 0)  -->
<svg version="1.1" id="Layer_1" xmlns:sketch="http://www.bohemiancoding.com/sketch/ns"
	 xmlns="http://www.w3.org/2000/svg" xmlns:xlink="http://www.w3.org/1999/xlink" x="0px" y="0px" viewBox="-331 239 84 84"
	 style="enable-background:new -331 239 84 84;" xml:space="preserve">
<style type="text/css">
	.st0{fill:#EEEEEE;}
	.st1{fill:#FFFFFF;}
	.st2{fill:#005EB8;}
	.st3{fill:none;stroke:#F2EDED;}
</style>
<g sketch:type="MSShapeGroup">
	<g id="path-1">
		<path class="st0" d="M-290,320.8c-21.4,0-38.8-17.4-38.8-38.8v-2c0-21.4,17.4-38.8,38.8-38.8h2c21.4,0,38.8,17.4,38.8,38.8v2
			c0,21.4-17.4,38.8-38.8,38.8H-290z"/>
		<path class="st1" d="M-288,242.3c20.8,0,37.8,16.9,37.8,37.8v2c0,20.8-16.9,37.8-37.8,37.8h-2c-20.8,0-37.8-16.9-37.8-37.8v-2
			c0-20.8,16.9-37.8,37.8-37.8H-288 M-288,240.3h-2c-22,0-39.8,17.8-39.8,39.8v2c0,22,17.8,39.8,39.8,39.8h2
			c22,0,39.8-17.8,39.8-39.8v-2C-248.2,258-266,240.3-288,240.3L-288,240.3z"/>
	</g>
</g>
<circle class="st2" cx="-289" cy="281.4" r="13.7"/>
<g>
	<path id="path-1_1_" class="st3" d="M-290,240.3h2c22,0,39.8,17.8,39.8,39.8v2c0,22-17.8,39.8-39.8,39.8h-2
		c-22,0-39.8-17.8-39.8-39.8v-2C-329.7,258-311.9,240.3-290,240.3z"/>
</g>
<g id="_Clip_Group_">
	<path id="_Clipping_Path_2" class="st2" d="M-286.1,258.1c-12.8-1.6-24.4,7.4-26,20.2c-1.6,12.8,7.4,24.4,20.2,26
		c12.8,1.6,24.4-7.4,26-20.2c0.1-1,0.2-1.9,0.2-2.9c0-7.2-3.3-14-9.1-18.4l-2.3,1.7c0.4,0.3,0.8,0.6,1.2,0.9
		c8.7,7.2,10,20.1,2.8,28.8c-7.2,8.7-20.1,10-28.8,2.8c-8.7-7.2-10-20.1-2.8-28.8c3.9-4.7,9.7-7.5,15.9-7.5c0.9,0,1.9,0.1,2.8,0.2
		c-0.5,2.1-1.6,4.5-1.6,4.5l7.9-6.1l-8-5.8C-287,255.3-286.4,256.3-286.1,258.1z"/>
</g>
<g id="_Clip_Group_2">
	<path id="_Compound_Clipping_Path_2" class="st0" d="M-283,284.4h1.7l2.6-5.3v-1.2h-4.8v1.2h3.2v0.1L-283,284.4z M-286,285.6
		l1.9-7.7h-1.5l-1.9,7.7H-286L-286,285.6z M-292.3,282c0.7-1.4,1.2-2.1,1.7-3h0.1v3L-292.3,282L-292.3,282L-292.3,282z
		 M-290.5,284.2h1.6v-1h0.8v-1.3h-0.8v-4.2h-2.3c-0.9,1.3-1.7,2.7-2.5,4.1v1.4h3.2L-290.5,284.2L-290.5,284.2L-290.5,284.2z
		 M-299.8,279.9L-299.8,279.9h1.5l0,0c0-0.5,0.4-0.9,0.9-0.9c0.4-0.1,0.8,0.2,0.9,0.7c0,0,0,0.1,0,0.1c0,0.4-0.2,0.7-1.2,1.6
		l-2.1,1.9v1.1h4.9v-1.3h-2.8V283l1.1-1c1.2-1,1.6-1.7,1.6-2.4c0-1.1-1-1.9-2.4-1.9C-298.8,277.7-299.8,278.6-299.8,279.9
		L-299.8,279.9z"/>
</g>
</svg>
