<?xml version="1.0" encoding="utf-8"?>
<!-- Generator: Adobe Illustrator 19.1.1, SVG Export Plug-In . SVG Version: 6.00 Build 0)  -->
<svg version="1.1" id="Layer_1" xmlns:sketch="http://www.bohemiancoding.com/sketch/ns"
	 xmlns="http://www.w3.org/2000/svg" xmlns:xlink="http://www.w3.org/1999/xlink" x="0px" y="0px" viewBox="-331 239 84 84"
	 style="enable-background:new -331 239 84 84;" xml:space="preserve">
<style type="text/css">
	.st0{fill:#EEEEEE;}
	.st1{fill:#FFFFFF;}
	.st2{fill:none;stroke:#F2EDED;}
	.st3{fill:#005EB8;}
</style>
<g sketch:type="MSShapeGroup">
	<g id="path-1">
		<path class="st0" d="M-290,320.8c-21.4,0-38.8-17.4-38.8-38.8v-2c0-21.4,17.4-38.8,38.8-38.8h2c21.4,0,38.8,17.4,38.8,38.8v2
			c0,21.4-17.4,38.8-38.8,38.8H-290z"/>
		<path class="st1" d="M-288,242.3c20.8,0,37.8,16.9,37.8,37.8v2c0,20.8-16.9,37.8-37.8,37.8h-2c-20.8,0-37.8-16.9-37.8-37.8v-2
			c0-20.8,16.9-37.8,37.8-37.8H-288 M-288,240.3h-2c-22,0-39.8,17.8-39.8,39.8v2c0,22,17.8,39.8,39.8,39.8h2
			c22,0,39.8-17.8,39.8-39.8v-2C-248.2,258-266,240.3-288,240.3L-288,240.3z"/>
	</g>
</g>
<g>
	<path id="path-1_1_" class="st2" d="M-290,240.3h2c22,0,39.8,17.8,39.8,39.8v2c0,22-17.8,39.8-39.8,39.8h-2
		c-22,0-39.8-17.8-39.8-39.8v-2C-329.7,258-311.9,240.3-290,240.3z"/>
</g>
<g>
	<polygon class="st3" points="-286.4,295.7 -307.1,295.7 -307.1,262.8 -274.2,262.8 -274.2,284.2 -277,284.2 -277,265.6 
		-304.3,265.6 -304.3,292.9 -286.4,292.9 	"/>
</g>
<g>
	<path class="st3" d="M-279,276.1h-23.2v-7.9h23.2C-279,268.2-279,276.1-279,276.1z M-299.4,273.3h17.6V271h-17.6V273.3z"/>
</g>
<g>
	<path class="st3" d="M-291.8,284.1h-10.4v-5.8h10.4V284.1z M-299.6,282h5.2v-1.6h-5.2C-299.6,280.4-299.6,282-299.6,282z"/>
</g>
<g>
	<path class="st3" d="M-279,284.1h-10.5v-5.8h10.5C-279,278.3-279,284.1-279,284.1z M-286.9,282h5.2v-1.6h-5.2V282z"/>
</g>
<g>
	<polygon class="st3" points="-268.9,291.8 -274.3,291.8 -274.3,286.5 -279.2,286.5 -279.2,291.8 -284.5,291.8 -284.5,296.8 
		-279.2,296.8 -279.2,302.1 -274.3,302.1 -274.3,296.8 -268.9,296.8 	"/>
</g>
<rect x="-300.6" y="269.6" class="st3" width="19.5" height="4.6"/>
<rect x="-300.6" y="278.8" class="st3" width="8.4" height="4.9"/>
<rect x="-288.6" y="279.1" class="st3" width="7.9" height="4.6"/>
</svg>
