<?xml version="1.0" encoding="utf-8"?>
<!-- Generator: Adobe Illustrator 25.4.1, SVG Export Plug-In . SVG Version: 6.00 Build 0)  -->
<svg version="1.1" id="Layer_1" xmlns="http://www.w3.org/2000/svg" xmlns:xlink="http://www.w3.org/1999/xlink" x="0px" y="0px"
	 viewBox="0 0 748 168.7" style="enable-background:new 0 0 748 168.7;" xml:space="preserve">
<style type="text/css">
	.st0{enable-background:new    ;}
	.st1{fill:#FFF800;}
	.st2{fill:#48A4D8;}
	.st3{fill:#FFFFFF;stroke:#FFFFFF;stroke-width:1.5;stroke-miterlimit:10;}
	.st4{fill:none;stroke:#FFFFFF;stroke-width:3.5;stroke-miterlimit:10;}
	.st5{fill:#F2A24C;}
	.st6{fill:#FFFFFF;stroke:#FFFFFF;stroke-miterlimit:10;}
	.st7{fill:#A1BAC4;}
	.st8{fill:#FFFFFF;stroke:#FFFFFF;stroke-width:0.3;stroke-miterlimit:10;}
	.st9{fill:#4B6C7E;}
	.st10{fill:#FFFFFF;}
	.st11{fill:none;stroke:#FFFFFF;stroke-width:3;stroke-miterlimit:10;}
	.st12{fill:#48A4D8;stroke:#FFFFFF;stroke-width:3;stroke-miterlimit:10;}
	.st13{fill:#71BE71;}
	.st14{fill:none;stroke:#4B6C7E;stroke-miterlimit:10;}
</style>
<g>
	<g class="st0">
		<path class="st1" d="M19.6,142.9l-1.4-3.7h-4.6l-1.4,3.7h-1.5l4.6-11.4h1.1l4.5,11.4H19.6z M17.8,138l-1.4-3.5
			c-0.2-0.5-0.3-1-0.6-1.6c-0.1,0.5-0.2,1-0.5,1.6l-1.4,3.5H17.8z"/>
		<path class="st1" d="M26.3,143c-0.6,0-1-0.1-1.5-0.3c-0.5-0.2-0.8-0.6-1.1-0.9h-0.1c0.1,0.5,0.1,1,0.1,1.4v3.5h-1.3v-12.4h0.9
			l0.2,1.1h0.1c0.3-0.5,0.7-0.8,1.1-1c0.5-0.2,0.9-0.3,1.5-0.3c1.1,0,2.1,0.3,2.6,1.1c0.6,0.8,0.9,1.8,0.9,3.3
			c0,1.4-0.3,2.5-0.9,3.3C28.3,142.7,27.5,143,26.3,143z M26.1,135.3c-0.9,0-1.5,0.2-1.9,0.7c-0.5,0.5-0.6,1.3-0.6,2.3v0.3
			c0,1.3,0.2,2.1,0.6,2.6c0.5,0.6,1,0.8,1.9,0.8c0.7,0,1.4-0.3,1.7-0.9s0.7-1.4,0.7-2.5c0-1-0.2-1.9-0.7-2.4
			C27.5,135.5,26.9,135.3,26.1,135.3z"/>
		<path class="st1" d="M36.2,143c-0.6,0-1-0.1-1.5-0.3c-0.5-0.2-0.8-0.6-1.1-0.9h-0.1c0.1,0.5,0.1,1,0.1,1.4v3.5h-1.3v-12.4h1
			l0.2,1.1h0.1c0.3-0.5,0.7-0.8,1.1-1c0.5-0.2,0.9-0.3,1.5-0.3c1.1,0,2.1,0.3,2.6,1.1c0.6,0.8,0.9,1.8,0.9,3.3
			c0,1.4-0.3,2.5-0.9,3.3C38.1,142.7,37.2,143,36.2,143z M35.9,135.3c-0.9,0-1.5,0.2-1.9,0.7c-0.5,0.5-0.6,1.3-0.6,2.3v0.3
			c0,1.3,0.2,2.1,0.6,2.6c0.5,0.6,1,0.8,1.9,0.8c0.7,0,1.4-0.3,1.7-0.9s0.7-1.4,0.7-2.5c0-1-0.2-1.9-0.7-2.4
			C37.3,135.5,36.7,135.3,35.9,135.3z"/>
		<path class="st1" d="M43.2,142.9H42v-12.1h1.3L43.2,142.9L43.2,142.9z"/>
		<path class="st1" d="M45.9,132c0-0.3,0.1-0.6,0.2-0.7c0.1-0.1,0.3-0.2,0.6-0.2c0.2,0,0.3,0.1,0.6,0.2c0.2,0.1,0.2,0.3,0.2,0.7
			c0,0.3-0.1,0.5-0.2,0.7c-0.1,0.1-0.3,0.2-0.6,0.2c-0.2,0-0.5-0.1-0.6-0.2C46,132.5,45.9,132.3,45.9,132z M47.2,142.9H46v-8.6h1.3
			L47.2,142.9L47.2,142.9z"/>
		<path class="st1" d="M53.4,143c-1.3,0-2.2-0.3-2.9-1.1c-0.7-0.8-1-1.8-1-3.2c0-1.5,0.3-2.5,1-3.3s1.7-1.1,3-1.1
			c0.5,0,0.8,0,1.3,0.1s0.7,0.2,0.9,0.3l-0.3,1.1c-0.3-0.1-0.6-0.2-0.9-0.3c-0.3-0.1-0.7-0.1-0.9-0.1c-1.7,0-2.6,1.1-2.6,3.3
			c0,1,0.2,1.8,0.7,2.4s1,0.8,1.9,0.8c0.7,0,1.5-0.1,2.2-0.5v1.1C55,142.9,54.3,143,53.4,143z"/>
		<path class="st1" d="M62.9,142.9l-0.2-1.3h-0.1c-0.5,0.6-0.8,0.9-1.3,1.1s-0.9,0.3-1.6,0.3c-0.8,0-1.5-0.2-1.9-0.7
			c-0.5-0.5-0.7-1-0.7-1.8c0-1.7,1.4-2.6,4.1-2.7h1.5v-0.6c0-0.7-0.1-1.1-0.5-1.5c-0.3-0.3-0.8-0.5-1.4-0.5c-0.7,0-1.5,0.2-2.4,0.7
			l-0.3-1c0.5-0.2,0.9-0.5,1.4-0.6s1-0.2,1.5-0.2c1,0,1.8,0.2,2.3,0.7s0.7,1.1,0.7,2.2v5.8h-1.1V142.9z M59.9,142
			c0.8,0,1.5-0.2,1.9-0.7c0.5-0.5,0.7-1,0.7-1.8v-0.8h-1.3c-1,0-1.8,0.2-2.3,0.5c-0.5,0.2-0.7,0.7-0.7,1.4c0,0.5,0.1,0.8,0.5,1
			C59.1,141.8,59.4,142,59.9,142z"/>
		<path class="st1" d="M69.3,142c0.2,0,0.5,0,0.7,0s0.3-0.1,0.5-0.1v1c-0.1,0.1-0.3,0.1-0.6,0.1s-0.6,0.1-0.7,0.1
			c-1.6,0-2.5-0.9-2.5-2.6v-5.1h-1.3v-0.6l1.3-0.6l0.6-1.8H68v1.9h2.5v1H68v5c0,0.6,0.1,0.9,0.3,1.1C68.5,141.8,68.8,142,69.3,142z"
			/>
		<path class="st1" d="M72,132c0-0.3,0.1-0.6,0.2-0.7s0.3-0.2,0.6-0.2s0.3,0.1,0.6,0.2c0.2,0.1,0.2,0.3,0.2,0.7
			c0,0.3-0.1,0.5-0.2,0.7c-0.1,0.1-0.3,0.2-0.6,0.2s-0.5-0.1-0.6-0.2C72.1,132.5,72,132.3,72,132z M73.5,142.9h-1.3v-8.6h1.3V142.9z
			"/>
		<path class="st1" d="M83.5,138.6c0,1.4-0.3,2.5-1,3.3s-1.7,1.1-2.9,1.1c-0.8,0-1.5-0.2-2.1-0.6s-1-0.9-1.4-1.6
			c-0.3-0.7-0.5-1.5-0.5-2.4c0-1.4,0.3-2.5,1-3.3s1.7-1.1,2.9-1.1s2.2,0.3,2.9,1.1C83.2,136,83.5,137.2,83.5,138.6z M77,138.6
			c0,1.1,0.2,1.9,0.7,2.5s1,0.9,1.9,0.9s1.5-0.2,1.9-0.8c0.5-0.6,0.7-1.4,0.7-2.5s-0.2-1.9-0.7-2.5s-1.1-0.8-1.9-0.8
			s-1.5,0.2-1.9,0.8C77.2,136.8,77,137.4,77,138.6z"/>
		<path class="st1" d="M91.7,142.9v-5.5c0-0.7-0.1-1.3-0.5-1.6c-0.3-0.3-0.8-0.6-1.5-0.6c-0.9,0-1.6,0.2-1.9,0.7s-0.6,1.3-0.6,2.4
			v4.5H86v-8.6h1l0.2,1.1h0.1c0.2-0.5,0.7-0.8,1.1-1c0.5-0.2,1-0.3,1.6-0.3c1,0,1.8,0.2,2.3,0.8c0.6,0.5,0.8,1.3,0.8,2.4v5.6h-1.5
			L91.7,142.9L91.7,142.9z"/>
	</g>
	<g class="st0">
		<path class="st1" d="M12.5,161L12.5,161c-0.7,0.9-1.6,1.3-2.7,1.3s-1.9-0.3-2.6-1.1s-0.9-1.8-0.9-3.3s0.3-2.5,0.9-3.3
			s1.5-1.1,2.6-1.1s2.1,0.5,2.6,1.3h0.1v-0.6v-0.6v-3.4h1.3v12.1h-1L12.5,161z M10,161.1c0.9,0,1.5-0.2,1.9-0.7
			c0.3-0.5,0.6-1.3,0.6-2.3v-0.2c0-1.3-0.2-2.1-0.6-2.6c-0.5-0.6-1-0.8-1.9-0.8c-0.8,0-1.4,0.3-1.7,0.9c-0.5,0.6-0.6,1.4-0.6,2.5
			s0.2,1.9,0.6,2.5C8.7,161,9.2,161.1,10,161.1z"/>
		<path class="st1" d="M20.2,162.2c-1.3,0-2.3-0.3-3-1.1s-1.1-1.8-1.1-3.2c0-1.4,0.3-2.5,1-3.3s1.6-1.3,2.7-1.3c1,0,1.9,0.3,2.5,1
			s0.9,1.6,0.9,2.7v0.8h-5.9c0,1,0.2,1.7,0.8,2.3s1.1,0.8,2.1,0.8c0.9,0,1.8-0.2,2.7-0.6v1.1c-0.5,0.2-0.9,0.3-1.3,0.5
			C21.2,162.2,20.8,162.2,20.2,162.2z M19.8,154.5c-0.7,0-1.3,0.2-1.6,0.7c-0.3,0.5-0.7,1-0.7,1.8H22c0-0.8-0.2-1.5-0.6-1.8
			C21,154.7,20.5,154.5,19.8,154.5z"/>
		<path class="st1" d="M27.4,162.1l-3.2-8.6h1.4l1.8,5c0.5,1.1,0.7,1.9,0.7,2.3h0.1c0.1-0.2,0.2-0.8,0.6-1.7c0.3-0.9,1-2.7,2.1-5.7
			h1.4l-3.2,8.6h-1.6L27.4,162.1L27.4,162.1z"/>
		<path class="st1" d="M37.2,162.2c-1.3,0-2.3-0.3-3-1.1c-0.7-0.8-1.1-1.8-1.1-3.2c0-1.4,0.3-2.5,1-3.3s1.6-1.3,2.7-1.3
			c1,0,1.9,0.3,2.5,1s0.9,1.6,0.9,2.7v0.8h-5.9c0,1,0.2,1.7,0.8,2.3s1.1,0.8,2.1,0.8s1.8-0.2,2.7-0.6v1.1c-0.5,0.2-0.9,0.3-1.3,0.5
			C38.2,162.2,37.8,162.2,37.2,162.2z M36.7,154.5c-0.7,0-1.3,0.2-1.6,0.7s-0.7,1-0.7,1.8h4.5c0-0.8-0.2-1.5-0.6-1.8
			C38,154.7,37.4,154.5,36.7,154.5z"/>
		<path class="st1" d="M43.8,162.1h-1.3V150h1.3V162.1z"/>
		<path class="st1" d="M53.8,157.8c0,1.4-0.3,2.5-1,3.3s-1.7,1.1-2.9,1.1c-0.8,0-1.5-0.2-2.1-0.6s-1-0.9-1.4-1.6
			c-0.3-0.7-0.5-1.5-0.5-2.4c0-1.4,0.3-2.5,1-3.3s1.7-1.1,2.9-1.1s2.2,0.3,2.9,1.1C53.5,155.1,53.8,156.4,53.8,157.8z M47.3,157.8
			c0,1.1,0.2,1.9,0.7,2.5s1,0.9,1.9,0.9s1.5-0.2,1.9-0.8s0.7-1.4,0.7-2.5s-0.2-1.9-0.7-2.5s-1.1-0.8-1.9-0.8s-1.5,0.2-1.9,0.8
			C47.6,155.9,47.3,156.6,47.3,157.8z"/>
		<path class="st1" d="M60.1,162.2c-0.6,0-1-0.1-1.5-0.3c-0.5-0.2-0.8-0.6-1.1-0.9h-0.1c0.1,0.5,0.1,1,0.1,1.4v3.5h-1.3v-12.4h1
			l0.2,1.1h0.1c0.3-0.5,0.7-0.8,1.1-1c0.5-0.2,0.9-0.3,1.5-0.3c1.1,0,2.1,0.3,2.6,1.1c0.6,0.8,0.9,1.8,0.9,3.3
			c0,1.4-0.3,2.5-0.9,3.3C62.2,161.9,61.3,162.2,60.1,162.2z M60,154.5c-0.9,0-1.5,0.2-1.9,0.7c-0.5,0.5-0.6,1.3-0.6,2.3v0.3
			c0,1.3,0.2,2.1,0.6,2.6c0.5,0.6,1,0.8,1.9,0.8c0.7,0,1.4-0.3,1.7-0.9s0.7-1.4,0.7-2.5c0-1-0.2-1.9-0.7-2.4
			C61.3,154.7,60.7,154.5,60,154.5z"/>
		<path class="st1" d="M76.9,162.1v-5.6c0-0.7-0.1-1.1-0.5-1.5s-0.8-0.5-1.4-0.5c-0.8,0-1.4,0.2-1.8,0.7c-0.5,0.5-0.6,1.1-0.6,2.2
			v4.8h-1.3v-5.6c0-0.7-0.1-1.1-0.5-1.5s-0.8-0.5-1.4-0.5c-0.8,0-1.4,0.2-1.8,0.7c-0.3,0.5-0.6,1.3-0.6,2.4v4.5h-1.3v-8.5h1l0.2,1.1
			H67c0.2-0.5,0.6-0.7,1-1c0.5-0.3,0.9-0.3,1.5-0.3c1.4,0,2.2,0.5,2.6,1.5l0,0c0.2-0.5,0.6-0.8,1.1-1c0.6-0.2,1-0.3,1.6-0.3
			c0.9,0,1.7,0.2,2.2,0.8c0.5,0.5,0.7,1.3,0.7,2.4v5.6h-1.1v-0.4H76.9z"/>
		<path class="st1" d="M84.4,162.2c-1.3,0-2.3-0.3-3-1.1c-0.7-0.8-1.1-1.8-1.1-3.2c0-1.4,0.3-2.5,1-3.3s1.6-1.3,2.7-1.3
			c1,0,1.9,0.3,2.5,1s0.9,1.6,0.9,2.7v0.8h-5.9c0,1,0.2,1.7,0.8,2.3s1.1,0.8,2.1,0.8s1.8-0.2,2.7-0.6v1.1c-0.5,0.2-0.9,0.3-1.3,0.5
			C85.5,162.2,85,162.2,84.4,162.2z M84.1,154.5c-0.7,0-1.3,0.2-1.6,0.7c-0.3,0.5-0.7,1-0.7,1.8h4.3c0-0.8-0.2-1.5-0.6-1.8
			C85.2,154.7,84.8,154.5,84.1,154.5z"/>
		<path class="st1" d="M95.6,162.1v-5.5c0-0.7-0.1-1.3-0.5-1.6c-0.3-0.3-0.8-0.6-1.5-0.6c-0.9,0-1.6,0.2-1.9,0.7s-0.6,1.3-0.6,2.4
			v4.5h-1.3v-8.6h1l0.2,1.1h0.1c0.2-0.5,0.7-0.8,1.1-1c0.5-0.2,1-0.3,1.6-0.3c1,0,1.8,0.2,2.3,0.8c0.6,0.5,0.8,1.3,0.8,2.4v5.6h-1.5
			v0.1H95.6z"/>
		<path class="st1" d="M102.3,161.2c0.2,0,0.5,0,0.7,0s0.3-0.1,0.5-0.1v1c-0.1,0.1-0.3,0.1-0.6,0.1s-0.6,0.1-0.7,0.1
			c-1.6,0-2.5-0.9-2.5-2.6v-5.1h-1.3V154l1.3-0.6l0.6-1.8h0.7v1.9h2.5v1H101v5c0,0.6,0.1,0.9,0.3,1.1S101.9,161.2,102.3,161.2z"/>
	</g>
</g>
<circle class="st2" cx="56.9" cy="59.6" r="56.9"/>
<g>
	<path class="st3" d="M47,67l-13.2-5.9v-1.7L47,52.8v2.7l-9.9,4.7l9.9,4.1V67z"/>
	<path class="st3" d="M60.3,50.1L53,69.9h-3l7.4-19.8L60.3,50.1L60.3,50.1z"/>
	<path class="st3" d="M63.2,64.3l9.9-4.1l-9.9-4.7v-2.7l13.2,6.6v1.7L63.2,67C63.2,67,63.2,64.3,63.2,64.3z"/>
</g>
<g>
	<path class="st4" d="M66.1,87.4c-3.4,1.3-7,2.1-10.9,2.1c-16.2,0-29.3-13.1-29.3-29.3c0-6.1,1.8-11.7,5-16.3"/>
	<path class="st4" d="M44.1,33.1c3.4-1.4,7.2-2.2,11.1-2.2c16.2,0,29.3,13.1,29.3,29.3c0,6.1-1.9,11.7-5,16.4"/>
	<polyline class="st4" points="24.3,45.3 32,42.8 32.9,50.1 	"/>
	<polyline class="st4" points="86.3,74.3 79,77.9 76.9,70.7 	"/>
</g>
<g>
	<g>
		<path class="st1" d="M147.1,142.8l-1.4-3.7h-4.6l-1.4,3.7h-1.5l4.6-11.4h1.1l4.5,11.4H147.1z M145.2,137.9l-1.4-3.5
			c-0.2-0.5-0.3-1-0.6-1.6c-0.1,0.5-0.2,1-0.5,1.6l-1.4,3.5H145.2z"/>
		<path class="st1" d="M153.8,142.9c-0.6,0-1-0.1-1.5-0.3c-0.5-0.2-0.8-0.6-1.1-0.9h-0.1c0.1,0.5,0.1,1,0.1,1.4v3.5h-1.3v-12.4h1
			l0.2,1.1h0.1c0.3-0.5,0.7-0.8,1.1-1s0.9-0.3,1.5-0.3c1.1,0,2.1,0.3,2.6,1.1c0.6,0.8,0.9,1.8,0.9,3.3c0,1.4-0.3,2.5-0.9,3.3
			C155.7,142.6,154.9,142.9,153.8,142.9z M153.6,135.2c-0.9,0-1.5,0.2-1.9,0.7s-0.6,1.3-0.6,2.3v0.3c0,1.3,0.2,2.1,0.6,2.6
			c0.5,0.6,1,0.8,1.9,0.8c0.7,0,1.4-0.3,1.7-0.9s0.7-1.4,0.7-2.5c0-1-0.2-1.9-0.7-2.4C154.9,135.4,154.4,135.2,153.6,135.2z"/>
		<path class="st1" d="M163.6,142.9c-0.6,0-1-0.1-1.5-0.3c-0.5-0.2-0.8-0.6-1.1-0.9h-0.1c0.1,0.5,0.1,1,0.1,1.4v3.5h-1.3v-12.4h1
			l0.2,1.1h0.1c0.3-0.5,0.7-0.8,1.1-1c0.5-0.2,0.9-0.3,1.5-0.3c1.1,0,2.1,0.3,2.6,1.1c0.6,0.8,0.9,1.8,0.9,3.3
			c0,1.4-0.3,2.5-0.9,3.3C165.6,142.6,164.6,142.9,163.6,142.9z M163.4,135.2c-0.9,0-1.5,0.2-1.9,0.7s-0.6,1.3-0.6,2.3v0.3
			c0,1.3,0.2,2.1,0.6,2.6c0.5,0.6,1,0.8,1.9,0.8c0.7,0,1.4-0.3,1.7-0.9s0.7-1.4,0.7-2.5c0-1-0.2-1.9-0.7-2.4
			C164.8,135.4,164.2,135.2,163.4,135.2z"/>
		<path class="st1" d="M170.7,142.8h-1.3v-12.1h1.3V142.8z"/>
		<path class="st1" d="M173.3,131.9c0-0.3,0.1-0.6,0.2-0.7c0.1-0.1,0.3-0.2,0.6-0.2c0.2,0,0.3,0.1,0.6,0.2c0.2,0.1,0.2,0.3,0.2,0.7
			s-0.1,0.5-0.2,0.7c-0.1,0.1-0.3,0.2-0.6,0.2c-0.2,0-0.5-0.1-0.6-0.2C173.4,132.4,173.3,132.2,173.3,131.9z M174.7,142.8h-1.3v-8.6
			h1.3V142.8z"/>
		<path class="st1" d="M180.8,142.9c-1.3,0-2.2-0.3-2.9-1.1c-0.7-0.8-1-1.8-1-3.2c0-1.5,0.3-2.5,1-3.3s1.7-1.1,3-1.1
			c0.5,0,0.8,0,1.3,0.1s0.7,0.2,0.9,0.3l-0.3,1.1c-0.3-0.1-0.6-0.2-0.9-0.3s-0.7-0.1-0.9-0.1c-1.7,0-2.6,1.1-2.6,3.3
			c0,1,0.2,1.8,0.7,2.4s1,0.8,1.9,0.8c0.7,0,1.5-0.1,2.2-0.5v1.1C182.4,142.8,181.8,142.9,180.8,142.9z"/>
		<path class="st1" d="M190.3,142.8l-0.2-1.3H190c-0.5,0.6-0.8,0.9-1.3,1.1s-0.9,0.3-1.6,0.3c-0.8,0-1.5-0.2-1.9-0.7
			c-0.5-0.5-0.7-1-0.7-1.8c0-1.7,1.4-2.6,4.1-2.7h1.5v-0.6c0-0.7-0.1-1.1-0.5-1.5c-0.3-0.3-0.8-0.5-1.4-0.5c-0.7,0-1.5,0.2-2.4,0.7
			l-0.3-1c0.5-0.2,0.9-0.5,1.4-0.6s1-0.2,1.5-0.2c1,0,1.8,0.2,2.3,0.7s0.7,1.1,0.7,2.2v5.8h-1.1V142.8z M187.4,141.9
			c0.8,0,1.5-0.2,1.9-0.7c0.5-0.5,0.7-1,0.7-1.8v-0.8h-1.3c-1,0-1.8,0.2-2.3,0.5c-0.5,0.2-0.7,0.7-0.7,1.4c0,0.5,0.1,0.8,0.5,1
			C186.6,141.7,186.9,141.9,187.4,141.9z"/>
		<path class="st1" d="M196.7,141.9c0.2,0,0.5,0,0.7,0s0.3-0.1,0.5-0.1v1c-0.1,0.1-0.3,0.1-0.6,0.1s-0.6,0.1-0.7,0.1
			c-1.6,0-2.5-0.9-2.5-2.6v-5.1h-1.3v-0.6l1.3-0.6l0.6-1.8h0.8v1.9h2.5v1h-2.6v5c0,0.6,0.1,0.9,0.3,1.1
			C195.9,141.7,196.3,141.9,196.7,141.9z"/>
		<path class="st1" d="M199.4,131.9c0-0.3,0.1-0.6,0.2-0.7c0.1-0.1,0.3-0.2,0.6-0.2c0.2,0,0.3,0.1,0.6,0.2c0.2,0.1,0.2,0.3,0.2,0.7
			s-0.1,0.5-0.2,0.7c-0.1,0.1-0.3,0.2-0.6,0.2c-0.2,0-0.5-0.1-0.6-0.2C199.6,132.4,199.4,132.2,199.4,131.9z M200.9,142.8h-1.3v-8.6
			h1.3V142.8z"/>
		<path class="st1" d="M211,138.5c0,1.4-0.3,2.5-1,3.3s-1.7,1.1-2.9,1.1c-0.8,0-1.5-0.2-2.1-0.6c-0.6-0.3-1-0.9-1.4-1.6
			s-0.5-1.5-0.5-2.4c0-1.4,0.3-2.5,1-3.3s1.7-1.1,2.9-1.1s2.2,0.3,2.9,1.1C210.6,135.9,211,137.1,211,138.5z M204.5,138.5
			c0,1.1,0.2,1.9,0.7,2.5s1,0.9,1.9,0.9s1.5-0.2,1.9-0.8c0.5-0.6,0.7-1.4,0.7-2.5s-0.2-1.9-0.7-2.5s-1.1-0.8-1.9-0.8
			s-1.5,0.2-1.9,0.8S204.5,137.3,204.5,138.5z"/>
		<path class="st1" d="M219.2,142.8v-5.5c0-0.7-0.1-1.3-0.5-1.6c-0.3-0.3-0.8-0.6-1.5-0.6c-0.9,0-1.6,0.2-1.9,0.7s-0.6,1.3-0.6,2.4
			v4.5h-1.3v-8.6h1l0.2,1.1h0.1c0.2-0.5,0.7-0.8,1.1-1c0.5-0.2,1-0.3,1.6-0.3c1,0,1.8,0.2,2.3,0.8c0.6,0.5,0.8,1.3,0.8,2.4v5.6H219
			v0.1H219.2z"/>
	</g>
	<g>
		<path class="st1" d="M144.7,162v-5.6c0-0.7-0.1-1.1-0.5-1.5c-0.3-0.3-0.8-0.5-1.4-0.5c-0.8,0-1.4,0.2-1.8,0.7
			c-0.5,0.5-0.6,1.1-0.6,2.2v4.8h-1.3v-5.6c0-0.7-0.1-1.1-0.5-1.5c-0.3-0.3-0.8-0.5-1.4-0.5c-0.8,0-1.4,0.2-1.8,0.7
			c-0.3,0.5-0.6,1.3-0.6,2.4v4.5h-1.3v-8.6h1l0.2,1.1h0.1c0.2-0.5,0.6-0.7,1-1s0.9-0.3,1.5-0.3c1.4,0,2.2,0.5,2.6,1.5h0.1
			c0.2-0.5,0.6-0.8,1.1-1c0.6-0.2,1-0.3,1.6-0.3c0.9,0,1.7,0.2,2.2,0.8c0.5,0.5,0.7,1.3,0.7,2.4v5.6h-1.3V162H144.7z"/>
		<path class="st1" d="M153.9,162l-0.2-1.3h-0.1c-0.5,0.6-0.8,0.9-1.3,1.1s-0.9,0.3-1.6,0.3c-0.8,0-1.5-0.2-1.9-0.7s-0.7-1-0.7-1.8
			c0-1.7,1.4-2.6,4.1-2.7h1.5v-0.6c0-0.7-0.1-1.1-0.5-1.5c-0.3-0.3-0.8-0.5-1.4-0.5c-0.7,0-1.5,0.2-2.4,0.7l-0.3-1
			c0.5-0.2,0.9-0.5,1.4-0.6s1-0.2,1.5-0.2c1,0,1.8,0.2,2.3,0.7s0.7,1.1,0.7,2.2v5.8h-1.1V162z M150.9,161.1c0.8,0,1.5-0.2,1.9-0.7
			c0.5-0.5,0.7-1,0.7-1.8v-0.8h-1.3c-1,0-1.8,0.2-2.3,0.5c-0.5,0.2-0.7,0.7-0.7,1.4c0,0.5,0.1,0.8,0.5,1S150.5,161.1,150.9,161.1z"
			/>
		<path class="st1" d="M163.4,162v-5.5c0-0.7-0.1-1.3-0.5-1.6c-0.3-0.3-0.8-0.6-1.5-0.6c-0.9,0-1.6,0.2-1.9,0.7
			c-0.3,0.5-0.6,1.3-0.6,2.4v4.5h-1.3v-8.6h1l0.2,1.1h0.1c0.2-0.5,0.7-0.8,1.1-1c0.5-0.2,1-0.3,1.6-0.3c1,0,1.8,0.2,2.3,0.8
			c0.6,0.5,0.8,1.3,0.8,2.4v5.6h-1.5v0.1H163.4z"/>
		<path class="st1" d="M172.5,162l-0.2-1.3h-0.1c-0.5,0.6-0.8,0.9-1.3,1.1s-0.9,0.3-1.6,0.3c-0.8,0-1.5-0.2-1.9-0.7s-0.7-1-0.7-1.8
			c0-1.7,1.4-2.6,4.1-2.7h1.5v-0.6c0-0.7-0.1-1.1-0.5-1.5c-0.3-0.3-0.8-0.5-1.4-0.5c-0.7,0-1.5,0.2-2.4,0.7l-0.3-1
			c0.5-0.2,0.9-0.5,1.4-0.6s1-0.2,1.5-0.2c1,0,1.8,0.2,2.3,0.7s0.7,1.1,0.7,2.2v5.8h-1.1V162z M169.7,161.1c0.8,0,1.5-0.2,1.9-0.7
			c0.5-0.5,0.7-1,0.7-1.8v-0.8H171c-1,0-1.8,0.2-2.3,0.5c-0.5,0.2-0.7,0.7-0.7,1.4c0,0.5,0.1,0.8,0.5,1
			C168.9,160.8,169.1,161.1,169.7,161.1z"/>
		<path class="st1" d="M183.2,153.4v0.8l-1.6,0.2c0.1,0.2,0.2,0.5,0.3,0.7c0.1,0.3,0.2,0.6,0.2,1c0,0.8-0.3,1.5-0.9,2.1
			c-0.6,0.6-1.4,0.8-2.4,0.8c-0.2,0-0.5,0-0.7-0.1c-0.6,0.3-0.8,0.7-0.8,1.1c0,0.2,0.1,0.5,0.3,0.6s0.6,0.1,1,0.1h1.5
			c0.9,0,1.6,0.2,2.2,0.6s0.8,0.9,0.8,1.7c0,0.9-0.3,1.7-1.1,2.2s-1.8,0.8-3.3,0.8c-1.1,0-1.9-0.2-2.6-0.6s-0.9-1-0.9-1.7
			c0-0.6,0.1-0.9,0.5-1.4c0.3-0.5,0.8-0.7,1.4-0.8c-0.2-0.1-0.5-0.2-0.6-0.5c-0.1-0.2-0.2-0.5-0.2-0.7c0-0.3,0.1-0.6,0.2-0.8
			c0.1-0.2,0.5-0.5,0.8-0.7c-0.5-0.2-0.8-0.5-1-0.9c-0.2-0.5-0.5-0.9-0.5-1.5c0-0.9,0.2-1.7,0.8-2.2s1.4-0.8,2.4-0.8
			c0.5,0,0.8,0,1.3,0.1h3L183.2,153.4L183.2,153.4z M176.4,163.4c0,0.5,0.2,0.8,0.6,1s0.9,0.3,1.7,0.3c1.1,0,1.9-0.1,2.4-0.5
			c0.6-0.3,0.8-0.8,0.8-1.4c0-0.5-0.1-0.8-0.5-0.9c-0.3-0.2-0.8-0.2-1.6-0.2h-1.6c-0.6,0-1,0.1-1.4,0.5S176.4,162.9,176.4,163.4z
			 M177.1,156.2c0,0.6,0.1,1,0.5,1.4c0.3,0.3,0.8,0.5,1.4,0.5c1.3,0,1.9-0.6,1.9-1.8s-0.7-1.9-1.9-1.9c-0.6,0-1,0.1-1.4,0.5
			S177.1,155.5,177.1,156.2z"/>
		<path class="st1" d="M188.6,162.1c-1.3,0-2.3-0.3-3-1.1c-0.7-0.8-1.1-1.8-1.1-3.2c0-1.4,0.3-2.5,1-3.3s1.6-1.3,2.7-1.3
			c1,0,1.9,0.3,2.5,1s0.9,1.6,0.9,2.7v0.8h-5.9c0,1,0.2,1.7,0.8,2.3c0.6,0.6,1.1,0.8,2.1,0.8c0.9,0,1.8-0.2,2.7-0.6v1.1
			c-0.5,0.2-0.9,0.3-1.3,0.5C189.6,162.1,189.2,162.1,188.6,162.1z M188.3,154.3c-0.7,0-1.3,0.2-1.6,0.7s-0.7,1-0.7,1.8h4.5
			c0-0.8-0.2-1.5-0.6-1.8C189.4,154.6,188.8,154.3,188.3,154.3z"/>
		<path class="st1" d="M204.8,162v-5.6c0-0.7-0.1-1.1-0.5-1.5c-0.3-0.3-0.8-0.5-1.4-0.5c-0.8,0-1.4,0.2-1.8,0.7
			c-0.5,0.5-0.6,1.1-0.6,2.2v4.8h-1.3v-5.6c0-0.7-0.1-1.1-0.5-1.5c-0.3-0.3-0.8-0.5-1.4-0.5c-0.8,0-1.4,0.2-1.8,0.7
			c-0.3,0.5-0.6,1.3-0.6,2.4v4.5h-1.3v-8.6h1l0.2,1.1h0.1c0.2-0.5,0.6-0.7,1-1s0.9-0.3,1.5-0.3c1.4,0,2.2,0.5,2.6,1.5h0.1
			c0.2-0.5,0.6-0.8,1.1-1c0.6-0.2,1-0.3,1.6-0.3c0.9,0,1.7,0.2,2.2,0.8c0.5,0.5,0.7,1.3,0.7,2.4v5.6h-1.3V162H204.8z"/>
		<path class="st1" d="M212.3,162.1c-1.3,0-2.3-0.3-3-1.1s-1.1-1.8-1.1-3.2c0-1.4,0.3-2.5,1-3.3s1.6-1.3,2.7-1.3c1,0,1.9,0.3,2.5,1
			s0.9,1.6,0.9,2.7v0.8h-5.9c0,1,0.2,1.7,0.8,2.3c0.6,0.6,1.1,0.8,2.1,0.8c0.9,0,1.8-0.2,2.7-0.6v1.1c-0.5,0.2-0.9,0.3-1.3,0.5
			C213.5,162.1,212.9,162.1,212.3,162.1z M212,154.3c-0.7,0-1.3,0.2-1.6,0.7s-0.7,1-0.7,1.8h4.5c0-0.8-0.2-1.5-0.6-1.8
			C213.3,154.6,212.7,154.3,212,154.3z"/>
		<path class="st1" d="M223.6,162v-5.5c0-0.7-0.1-1.3-0.5-1.6s-0.8-0.6-1.5-0.6c-0.9,0-1.6,0.2-1.9,0.7c-0.3,0.5-0.6,1.3-0.6,2.4
			v4.5h-1.3v-8.6h1l0.2,1.1h0.1c0.2-0.5,0.7-0.8,1.1-1s1-0.3,1.6-0.3c1,0,1.8,0.2,2.3,0.8c0.6,0.5,0.8,1.3,0.8,2.4v5.6h-1.5v0.1
			H223.6z"/>
		<path class="st1" d="M230.3,161.1c0.2,0,0.5,0,0.7,0s0.3-0.1,0.5-0.1v1c-0.1,0.1-0.3,0.1-0.6,0.1c-0.2,0-0.6,0.1-0.7,0.1
			c-1.6,0-2.5-0.9-2.5-2.6v-5.1h-1.3v-0.6l1.3-0.6l0.6-1.8h0.8v1.9h2.5v1H229v5c0,0.6,0.1,0.9,0.3,1.1
			C229.6,160.8,229.9,161.1,230.3,161.1z"/>
	</g>
</g>
<circle class="st5" cx="183.7" cy="58.9" r="56.9"/>
<g>
	<g>
		<g>
			<path class="st6" d="M197.4,56.6l-2.2-0.4c-0.3-0.7-0.6-1.5-1-2.2l1.4-1.8c0.6-0.8,0.4-1.9-0.3-2.6l-2.1-2.1
				c-0.4-0.4-0.8-0.6-1.4-0.6c-0.4,0-0.8,0.1-1.1,0.4l-1.9,1.4c-0.7-0.4-1.5-0.7-2.2-1l-0.4-2.2c-0.1-1-1-1.7-1.9-1.7h-2.8
				c-1,0-1.8,0.7-1.9,1.7l-0.4,2.4c-0.7,0.3-1.5,0.6-2.2,1l-1.8-1.4c-0.3-0.3-0.7-0.4-1.1-0.4c-0.6,0-1,0.3-1.4,0.6l-2.1,2.1
				c-0.7,0.7-0.8,1.8-0.3,2.6l1.4,1.9c-0.4,0.7-0.7,1.4-0.8,2.2l-2.2,0.4c-1,0.1-1.7,1-1.7,1.9v2.8c0,1,0.7,1.8,1.7,1.9l2.4,0.4
				c0.3,0.7,0.6,1.5,1,2.2l-1.4,1.8c-0.6,0.8-0.4,1.9,0.3,2.6l2.1,2.1c0.4,0.4,0.8,0.6,1.4,0.6c0.4,0,0.8-0.1,1.1-0.4l1.9-1.4
				c0.7,0.4,1.4,0.7,2.1,0.8l0.4,2.2c0.1,1,1,1.7,1.9,1.7h2.9c1,0,1.8-0.7,1.9-1.7l0.4-2.2c0.7-0.3,1.5-0.6,2.2-1l1.8,1.4
				c0.3,0.3,0.7,0.4,1.1,0.4l0,0c0.6,0,1-0.3,1.4-0.6l2.1-2.1c0.7-0.7,0.8-1.8,0.3-2.6l-1.4-1.9c0.4-0.7,0.7-1.4,1-2.2l2.2-0.4
				c1-0.1,1.7-1,1.7-1.9v-2.8C199.1,57.7,198.4,56.9,197.4,56.6z M197.3,61.4c0,0.1,0,0.1-0.1,0.1l-2.8,0.4c-0.4,0-0.7,0.3-0.7,0.7
				c-0.3,1-0.7,1.9-1.1,2.8c-0.1,0.3-0.1,0.7,0,1l1.7,2.4c0,0,0,0.1,0,0.3l-2.1,2.1H192h-0.1l-2.4-1.7c-0.3-0.3-0.7-0.3-1,0
				c-0.8,0.6-1.8,1-2.8,1.1c-0.4,0.1-0.6,0.4-0.7,0.7l-0.4,2.8c0,0.1-0.1,0.1-0.1,0.1h-2.8c-0.1,0-0.1,0-0.1-0.1l-0.4-2.8
				c0-0.4-0.3-0.7-0.7-0.7c-1-0.3-1.9-0.7-2.8-1.1c-0.1-0.1-0.3-0.1-0.4-0.1s-0.4,0-0.6,0.1l-2.4,1.7c0,0,0,0-0.1,0h-0.1l-2.1-2.1
				c0,0,0-0.1,0-0.3l1.7-2.4c0.3-0.3,0.3-0.7,0-1c-0.6-0.8-1-1.8-1.2-2.8c-0.1-0.3-0.4-0.6-0.7-0.7l-2.9-0.6c-0.1,0-0.1-0.1-0.1-0.1
				v-2.8c0-0.1,0-0.1,0.1-0.1l2.8-0.4c0.4,0,0.7-0.3,0.7-0.7c0.3-1,0.7-1.9,1.1-2.8c0.1-0.3,0.1-0.7,0-1l-1.7-2.4c0,0,0-0.1,0-0.3
				l2.1-2.1h0.1h0.1l2.4,1.7c0.3,0.3,0.7,0.3,1,0c0.8-0.6,1.8-1,2.8-1.2c0.3-0.1,0.6-0.4,0.7-0.7l0.6-2.9c0-0.1,0.1-0.1,0.1-0.1h2.8
				c0.1,0,0.1,0,0.1,0.1l0.4,2.8c0,0.4,0.3,0.7,0.7,0.7c1,0.3,1.9,0.7,2.9,1.2c0.3,0.1,0.7,0.1,1,0l2.4-1.7c0,0,0,0,0.1,0h0.1
				l2.1,2.1c0,0,0,0.1,0,0.3l-1.7,2.4c-0.3,0.3-0.3,0.7,0,1c0.6,0.8,1,1.8,1.1,2.8c0.1,0.4,0.4,0.6,0.7,0.7l2.8,0.4
				c0.1,0,0.1,0.1,0.1,0.1L197.3,61.4L197.3,61.4z"/>
			<path class="st6" d="M182.9,53.1c-3.9,0-6.9,3.2-6.9,6.9s3.2,6.9,6.9,6.9s6.9-3.2,6.9-6.9C189.8,56.3,186.7,53.1,182.9,53.1z
				 M182.9,65.2c-2.8,0-5.1-2.4-5.1-5.1s2.4-5.1,5.1-5.1s5.1,2.4,5.1,5.1S185.8,65.2,182.9,65.2z"/>
		</g>
	</g>
</g>
<g>
	<g class="st0">
		<path class="st1" d="M403.4,142.8l-1.4-3.7h-4.6l-1.4,3.7h-1.5l4.6-11.4h1.1l4.5,11.4H403.4z M401.6,137.9l-1.4-3.5
			c-0.2-0.5-0.3-1-0.6-1.6c-0.1,0.5-0.2,1-0.5,1.6l-1.4,3.5H401.6z"/>
		<path class="st1" d="M410.1,142.9c-0.6,0-1-0.1-1.5-0.3c-0.5-0.2-0.8-0.6-1.1-0.9h-0.1c0.1,0.5,0.1,1,0.1,1.4v3.5h-1.3v-12.4h1
			l0.2,1.1h0.1c0.3-0.5,0.7-0.8,1.1-1c0.5-0.2,0.9-0.3,1.5-0.3c1.1,0,2.1,0.3,2.6,1.1c0.6,0.8,0.9,1.8,0.9,3.3
			c0,1.4-0.3,2.5-0.9,3.3C412.1,142.6,411.3,142.9,410.1,142.9z M409.9,135.2c-0.9,0-1.5,0.2-1.9,0.7c-0.5,0.5-0.6,1.3-0.6,2.3v0.3
			c0,1.3,0.2,2.1,0.6,2.6c0.5,0.6,1,0.8,1.9,0.8c0.7,0,1.4-0.3,1.7-0.9c0.5-0.6,0.7-1.4,0.7-2.5c0-1-0.2-1.9-0.7-2.4
			C411.3,135.4,410.7,135.2,409.9,135.2z"/>
		<path class="st1" d="M419.9,142.9c-0.6,0-1-0.1-1.5-0.3c-0.5-0.2-0.8-0.6-1.1-0.9h-0.1c0.1,0.5,0.1,1,0.1,1.4v3.5H416v-12.4h1
			l0.2,1.1h0.1c0.3-0.5,0.7-0.8,1.1-1c0.5-0.2,0.9-0.3,1.5-0.3c1.1,0,2.1,0.3,2.6,1.1c0.6,0.8,0.9,1.8,0.9,3.3
			c0,1.4-0.3,2.5-0.9,3.3C421.9,142.6,421,142.9,419.9,142.9z M419.7,135.2c-0.9,0-1.5,0.2-1.9,0.7c-0.5,0.5-0.6,1.3-0.6,2.3v0.3
			c0,1.3,0.2,2.1,0.6,2.6c0.5,0.6,1,0.8,1.9,0.8c0.7,0,1.4-0.3,1.7-0.9c0.5-0.6,0.7-1.4,0.7-2.5c0-1-0.2-1.9-0.7-2.4
			C421.1,135.4,420.5,135.2,419.7,135.2z"/>
		<path class="st1" d="M427,142.8h-1.3v-12.1h1.3V142.8z"/>
		<path class="st1" d="M429.6,131.9c0-0.3,0.1-0.6,0.2-0.7s0.3-0.2,0.6-0.2s0.3,0.1,0.6,0.2c0.1,0.1,0.2,0.3,0.2,0.7
			s-0.1,0.5-0.2,0.7c-0.1,0.1-0.3,0.2-0.6,0.2s-0.5-0.1-0.6-0.2C429.7,132.4,429.6,132.2,429.6,131.9z M431,142.8h-1.3v-8.6h1.3
			V142.8z"/>
		<path class="st1" d="M437.2,142.9c-1.3,0-2.2-0.3-2.9-1.1c-0.7-0.8-1-1.8-1-3.2c0-1.5,0.3-2.5,1-3.3s1.7-1.1,3-1.1
			c0.5,0,0.8,0,1.3,0.1s0.7,0.2,0.9,0.3l-0.3,1.1c-0.3-0.1-0.6-0.2-0.9-0.3s-0.7-0.1-0.9-0.1c-1.7,0-2.6,1.1-2.6,3.3
			c0,1,0.2,1.8,0.7,2.4s1,0.8,1.9,0.8c0.7,0,1.5-0.1,2.2-0.5v1.1C438.8,142.8,438.1,142.9,437.2,142.9z"/>
		<path class="st1" d="M446.6,142.8l-0.2-1.3h-0.1c-0.5,0.6-0.8,0.9-1.3,1.1s-0.9,0.3-1.6,0.3c-0.8,0-1.5-0.2-1.9-0.7
			c-0.5-0.5-0.7-1-0.7-1.8c0-1.7,1.4-2.6,4.1-2.7h1.5v-0.6c0-0.7-0.1-1.1-0.5-1.5s-0.8-0.5-1.4-0.5c-0.7,0-1.5,0.2-2.4,0.7l-0.3-1
			c0.5-0.2,0.9-0.5,1.4-0.6s1-0.2,1.5-0.2c1,0,1.8,0.2,2.3,0.7s0.7,1.1,0.7,2.2v5.8h-1.1V142.8z M443.8,141.9c0.8,0,1.5-0.2,1.9-0.7
			c0.5-0.5,0.7-1,0.7-1.8v-0.8h-1.3c-1,0-1.8,0.2-2.3,0.5c-0.5,0.2-0.7,0.7-0.7,1.4c0,0.5,0.1,0.8,0.5,1
			C442.9,141.8,443.2,141.9,443.8,141.9z"/>
		<path class="st1" d="M453,141.9c0.2,0,0.5,0,0.7,0s0.3-0.1,0.5-0.1v1c-0.1,0.1-0.3,0.1-0.6,0.1s-0.6,0.1-0.7,0.1
			c-1.6,0-2.5-0.9-2.5-2.6v-5.1h-1.3v-0.6l1.3-0.6l0.6-1.8h0.8v1.9h2.5v1h-2.6v5c0,0.6,0.1,0.9,0.3,1.1
			C452.2,141.7,452.6,141.9,453,141.9z"/>
		<path class="st1" d="M455.8,131.9c0-0.3,0.1-0.6,0.2-0.7s0.3-0.2,0.6-0.2s0.3,0.1,0.6,0.2c0.1,0.1,0.2,0.3,0.2,0.7
			s-0.1,0.5-0.2,0.7c-0.1,0.1-0.3,0.2-0.6,0.2s-0.5-0.1-0.6-0.2C455.9,132.4,455.8,132.2,455.8,131.9z M457.3,142.8H456v-8.6h1.3
			V142.8z"/>
		<path class="st1" d="M467.3,138.5c0,1.4-0.3,2.5-1,3.3s-1.7,1.1-2.9,1.1c-0.8,0-1.5-0.2-2.1-0.6s-1-0.9-1.4-1.6
			c-0.3-0.7-0.5-1.5-0.5-2.4c0-1.4,0.3-2.5,1-3.3s1.7-1.1,2.9-1.1c1.1,0,2.2,0.3,2.9,1.1C467,136.1,467.3,137.1,467.3,138.5z
			 M460.8,138.5c0,1.1,0.2,1.9,0.7,2.5s1,0.9,1.9,0.9c0.8,0,1.5-0.2,1.9-0.8c0.5-0.6,0.7-1.4,0.7-2.5s-0.2-1.9-0.7-2.5
			s-1.1-0.8-1.9-0.8s-1.5,0.2-1.9,0.8C461,136.5,460.8,137.3,460.8,138.5z"/>
		<path class="st1" d="M475.5,142.8v-5.5c0-0.7-0.1-1.3-0.5-1.6c-0.3-0.3-0.8-0.6-1.5-0.6c-0.9,0-1.6,0.2-1.9,0.7
			c-0.5,0.5-0.6,1.3-0.6,2.4v4.5h-1.3v-8.6h1l0.2,1.1h0.1c0.2-0.5,0.7-0.8,1.1-1c0.5-0.2,1-0.3,1.6-0.3c1,0,1.8,0.2,2.3,0.8
			c0.6,0.5,0.8,1.3,0.8,2.4v5.6h-1.5v0.1H475.5z"/>
	</g>
	<g class="st0">
		<path class="st1" d="M398.7,151c0-0.3,0.1-0.6,0.2-0.7s0.3-0.2,0.6-0.2c0.2,0,0.3,0.1,0.6,0.2c0.1,0.1,0.2,0.3,0.2,0.7
			s-0.1,0.5-0.2,0.7c-0.1,0.1-0.3,0.2-0.6,0.2c-0.2,0-0.5-0.1-0.6-0.2C398.8,151.6,398.7,151.4,398.7,151z M400.2,162h-1.3v-8.6h1.3
			V162z"/>
		<path class="st1" d="M408.8,162v-5.5c0-0.7-0.1-1.3-0.5-1.6s-0.8-0.6-1.5-0.6c-0.9,0-1.6,0.2-1.9,0.7c-0.5,0.5-0.6,1.3-0.6,2.4
			v4.5H403v-8.6h1l0.2,1.1h0.1c0.2-0.5,0.7-0.8,1.1-1c0.5-0.2,1-0.3,1.6-0.3c1,0,1.8,0.2,2.3,0.8c0.6,0.5,0.8,1.3,0.8,2.4v5.6h-1.5
			v0.1H408.8z"/>
		<path class="st1" d="M415.5,161.1c0.2,0,0.5,0,0.7,0s0.3-0.1,0.5-0.1v1c-0.1,0.1-0.3,0.1-0.6,0.1c-0.2,0-0.6,0.1-0.7,0.1
			c-1.6,0-2.5-0.9-2.5-2.6v-5.1h-1.3v-0.6l1.3-0.6l0.6-1.8h0.8v1.9h2.5v1h-2.5v5c0,0.6,0.1,0.9,0.3,1.1
			C414.7,160.8,415,161.1,415.5,161.1z"/>
		<path class="st1" d="M422,162.1c-1.3,0-2.3-0.3-3-1.1c-0.7-0.8-1.1-1.8-1.1-3.2c0-1.4,0.3-2.5,1-3.3s1.6-1.3,2.7-1.3
			c1,0,1.9,0.3,2.5,1s0.9,1.6,0.9,2.7v0.8h-5.9c0,1,0.2,1.7,0.8,2.3c0.5,0.6,1.1,0.8,2.1,0.8s1.8-0.2,2.7-0.6v1.1
			c-0.5,0.2-0.9,0.3-1.3,0.5C423,162.1,422.6,162.1,422,162.1z M421.6,154.3c-0.7,0-1.3,0.2-1.6,0.7c-0.5,0.5-0.7,1-0.7,1.8h4.5
			c0-0.8-0.2-1.5-0.6-1.8C422.8,154.6,422.3,154.3,421.6,154.3z"/>
		<path class="st1" d="M434.3,153.4v0.8l-1.6,0.2c0.1,0.2,0.2,0.5,0.3,0.7c0.1,0.3,0.2,0.6,0.2,1c0,0.8-0.3,1.5-0.9,2.1
			c-0.6,0.5-1.4,0.8-2.4,0.8c-0.2,0-0.5,0-0.7-0.1c-0.6,0.3-0.8,0.7-0.8,1.1c0,0.2,0.1,0.5,0.3,0.6c0.2,0.1,0.6,0.1,1,0.1h1.5
			c0.9,0,1.6,0.2,2.2,0.6c0.5,0.3,0.8,0.9,0.8,1.7c0,0.9-0.3,1.7-1.1,2.2c-0.8,0.5-1.8,0.8-3.3,0.8c-1.1,0-1.9-0.2-2.6-0.6
			c-0.6-0.5-0.9-1-0.9-1.7c0-0.6,0.1-0.9,0.5-1.4c0.3-0.3,0.8-0.7,1.4-0.8c-0.2-0.1-0.5-0.2-0.6-0.5c-0.1-0.2-0.2-0.5-0.2-0.7
			c0-0.3,0.1-0.6,0.2-0.8c0.1-0.2,0.5-0.5,0.8-0.7c-0.5-0.2-0.8-0.5-1-0.9c-0.2-0.5-0.5-0.9-0.5-1.5c0-0.9,0.2-1.7,0.8-2.2
			c0.6-0.5,1.4-0.8,2.4-0.8c0.5,0,0.8,0,1.3,0.1h3L434.3,153.4L434.3,153.4z M427.5,163.4c0,0.5,0.2,0.8,0.6,1
			c0.3,0.2,0.9,0.3,1.7,0.3c1.1,0,1.9-0.1,2.4-0.5c0.6-0.3,0.8-0.8,0.8-1.4c0-0.5-0.1-0.8-0.5-0.9c-0.3-0.2-0.8-0.2-1.6-0.2h-1.6
			c-0.6,0-1,0.1-1.4,0.5S427.5,162.9,427.5,163.4z M428.2,156.2c0,0.6,0.1,1,0.5,1.4c0.3,0.3,0.8,0.5,1.4,0.5c1.3,0,1.9-0.6,1.9-1.8
			s-0.7-1.9-1.9-1.9c-0.6,0-1,0.1-1.4,0.5S428.2,155.5,428.2,156.2z"/>
		<path class="st1" d="M440,153.2c0.3,0,0.7,0,1,0.1l-0.2,1.3c-0.3-0.1-0.7-0.1-0.9-0.1c-0.7,0-1.3,0.2-1.8,0.8
			c-0.6,0.6-0.7,1.3-0.7,2.1v4.6h-1.3v-8.6h1l0.1,1.6h0.1c0.3-0.6,0.7-1,1.1-1.3S439.4,153.2,440,153.2z"/>
		<path class="st1" d="M454.3,161.1c0.2,0,0.5,0,0.7,0s0.3-0.1,0.5-0.1v1c-0.1,0.1-0.3,0.1-0.6,0.1s-0.6,0.1-0.7,0.1
			c-1.6,0-2.5-0.9-2.5-2.6v-5.1h-1.3v-0.6l1.3-0.6l0.6-1.8h0.8v1.9h2.5v1H453v5c0,0.6,0.1,0.9,0.3,1.1
			C453.6,160.8,453.9,161.1,454.3,161.1z"/>
		<path class="st1" d="M457.1,151c0-0.3,0.1-0.6,0.2-0.7s0.3-0.2,0.6-0.2c0.2,0,0.3,0.1,0.6,0.2c0.1,0.1,0.2,0.3,0.2,0.7
			s-0.1,0.5-0.2,0.7c-0.1,0.1-0.3,0.2-0.6,0.2c-0.2,0-0.5-0.1-0.6-0.2C457.1,151.6,457.1,151.4,457.1,151z M458.5,162h-1.3v-8.6h1.3
			V162z"/>
		<path class="st1" d="M468.7,157.6c0,1.4-0.3,2.5-1,3.3s-1.7,1.1-2.9,1.1c-0.8,0-1.5-0.2-2.1-0.6s-1-0.9-1.4-1.6
			c-0.3-0.7-0.5-1.5-0.5-2.4c0-1.4,0.3-2.5,1-3.3s1.7-1.1,2.9-1.1c1.1,0,2.2,0.3,2.9,1.1C468.3,155.3,468.7,156.3,468.7,157.6z
			 M462.2,157.6c0,1.1,0.2,1.9,0.7,2.5s1,0.9,1.9,0.9c0.8,0,1.5-0.2,1.9-0.8s0.7-1.4,0.7-2.5s-0.2-1.9-0.7-2.5s-1.1-0.8-1.9-0.8
			s-1.5,0.2-1.9,0.8C462.3,155.7,462.2,156.5,462.2,157.6z"/>
		<path class="st1" d="M476.8,162v-5.5c0-0.7-0.1-1.3-0.5-1.6c-0.3-0.3-0.8-0.6-1.5-0.6c-0.9,0-1.6,0.2-1.9,0.7
			c-0.5,0.5-0.6,1.3-0.6,2.4v4.5H471v-8.6h1l0.2,1.1h0.1c0.2-0.5,0.7-0.8,1.1-1c0.5-0.2,1-0.3,1.6-0.3c1,0,1.8,0.2,2.3,0.8
			c0.6,0.5,0.8,1.3,0.8,2.4v5.6h-1.5v0.1H476.8z"/>
		<path class="st1" d="M447.9,161.6l-0.2-1.3h-0.1c-0.5,0.6-0.8,0.9-1.3,1.1s-0.9,0.3-1.6,0.3c-0.8,0-1.5-0.2-1.9-0.7
			c-0.5-0.5-0.7-1-0.7-1.8c0-1.7,1.4-2.6,4.1-2.7h1.5v-0.6c0-0.7-0.1-1.1-0.5-1.5s-0.8-0.5-1.4-0.5c-0.7,0-1.5,0.2-2.4,0.7l-0.3-1
			c0.5-0.2,0.9-0.5,1.4-0.6s1-0.2,1.5-0.2c1,0,1.8,0.2,2.3,0.7s0.7,1.1,0.7,2.2v5.8h-1.1V161.6z M445,160.7c0.8,0,1.5-0.2,1.9-0.7
			c0.5-0.5,0.7-1,0.7-1.8v-0.8h-1.3c-1,0-1.8,0.2-2.3,0.5c-0.5,0.2-0.7,0.7-0.7,1.4c0,0.5,0.1,0.8,0.5,1
			C444.1,160.6,444.4,160.7,445,160.7z"/>
	</g>
</g>
<g>
	<circle class="st7" cx="437.4" cy="58.9" r="56.9"/>
	<g>
		<path class="st8" d="M461.1,34.3c-5.6-5.6-14.4-5.4-20,0l-9.9,9.9c-0.8,0.8-0.8,2.3,0,3.1s2.3,0.8,3.1,0l9.9-9.9
			c2-2,4.2-2.8,6.8-2.8s5.1,1.1,6.8,2.8c1.7,1.7,2.8,4.2,2.8,6.8s-1.1,5.1-2.8,6.8l-13,13c-3.9,3.7-9.9,3.7-13.8,0
			c-0.8-0.8-2.3-0.8-3.1,0c-0.8,0.8-0.8,2.3,0,3.1c2.8,2.8,6.5,4.2,9.9,4.2s7.3-1.4,9.9-4.2l13-13c2.5-2.5,4.2-6.2,4.2-9.9
			C465.3,40.5,463.9,36.9,461.1,34.3z"/>
		<path class="st8" d="M435.2,74.4l-8.5,8.5c-2,2-4.2,2.8-6.8,2.8s-5.1-1.1-6.8-2.8c-3.9-3.9-3.9-9.9,0-13.8l12.4-12.4
			c2-2,4.2-2.8,6.8-2.8s5.1,1.1,6.8,2.8c0.8,0.8,2.3,0.8,3.1,0c0.8-0.8,0.8-2.3,0-3.1c-5.4-5.4-14.4-5.6-20,0L409.8,66
			c-2.5,2.5-4.2,6.2-4.2,9.9s1.4,7.3,4.2,9.9c2.5,2.5,6.2,4.2,9.9,4.2c3.7,0,7.3-1.4,9.9-4.2l8.5-8.5c0.8-0.8,0.8-2.3,0-3.1
			C437.4,73.5,436,73.5,435.2,74.4z"/>
	</g>
</g>
<g>
	<g class="st0">
		<path class="st1" d="M530.3,142.6l-1.4-3.7h-4.6l-1.4,3.7h-1.5l4.6-11.4h1.1l4.5,11.4H530.3z M528.5,137.7l-1.4-3.5
			c-0.2-0.5-0.3-1-0.6-1.6c-0.1,0.5-0.2,1-0.5,1.6l-1.4,3.5H528.5z"/>
		<path class="st1" d="M537.1,142.8c-0.6,0-1-0.1-1.5-0.3c-0.5-0.2-0.8-0.6-1.1-0.9h-0.1c0.1,0.5,0.1,1,0.1,1.4v3.5h-1.3v-12.4h1
			l0.2,1.1h0.1c0.3-0.5,0.7-0.8,1.1-1c0.5-0.2,0.9-0.3,1.5-0.3c1.1,0,2.1,0.3,2.6,1.1c0.6,0.8,0.9,1.8,0.9,3.3
			c0,1.4-0.3,2.5-0.9,3.3C539,142.4,538.2,142.8,537.1,142.8z M536.8,135c-0.9,0-1.5,0.2-1.9,0.7c-0.5,0.5-0.6,1.3-0.6,2.3v0.3
			c0,1.3,0.2,2.1,0.6,2.6c0.5,0.6,1,0.8,1.9,0.8c0.7,0,1.4-0.3,1.7-0.9c0.5-0.6,0.7-1.4,0.7-2.5c0-1-0.2-1.9-0.7-2.4
			C538.2,135.2,537.6,135,536.8,135z"/>
		<path class="st1" d="M546.9,142.8c-0.6,0-1-0.1-1.5-0.3c-0.5-0.2-0.8-0.6-1.1-0.9h-0.1c0.1,0.5,0.1,1,0.1,1.4v3.5H543v-12.4h1
			l0.2,1.1h0.1c0.3-0.5,0.7-0.8,1.1-1c0.5-0.2,0.9-0.3,1.5-0.3c1.1,0,2.1,0.3,2.6,1.1c0.6,0.8,0.9,1.8,0.9,3.3
			c0,1.4-0.3,2.5-0.9,3.3C548.8,142.4,547.9,142.8,546.9,142.8z M546.7,135c-0.9,0-1.5,0.2-1.9,0.7c-0.5,0.5-0.6,1.3-0.6,2.3v0.3
			c0,1.3,0.2,2.1,0.6,2.6c0.5,0.6,1,0.8,1.9,0.8c0.7,0,1.4-0.3,1.7-0.9c0.5-0.6,0.7-1.4,0.7-2.5c0-1-0.2-1.9-0.7-2.4
			C548,135.2,547.5,135,546.7,135z"/>
		<path class="st1" d="M554,142.6h-1.3v-12.1h1.3V142.6z"/>
		<path class="st1" d="M556.6,131.7c0-0.3,0.1-0.6,0.2-0.7c0.1-0.1,0.3-0.2,0.6-0.2c0.2,0,0.3,0.1,0.6,0.2c0.1,0.1,0.2,0.3,0.2,0.7
			s-0.1,0.5-0.2,0.7c-0.1,0.1-0.3,0.2-0.6,0.2c-0.2,0-0.5-0.1-0.6-0.2S556.6,132,556.6,131.7z M558,142.6h-1.3V134h1.3V142.6z"/>
		<path class="st1" d="M564.1,142.8c-1.3,0-2.2-0.3-2.9-1.1c-0.7-0.8-1-1.8-1-3.2c0-1.5,0.3-2.5,1-3.3s1.7-1.1,3-1.1
			c0.5,0,0.8,0,1.3,0.1s0.7,0.2,0.9,0.3l-0.3,1.1c-0.3-0.1-0.6-0.2-0.9-0.3s-0.7-0.1-0.9-0.1c-1.7,0-2.6,1.1-2.6,3.3
			c0,1,0.2,1.8,0.7,2.4s1,0.8,1.9,0.8c0.7,0,1.5-0.1,2.2-0.5v1.1C565.7,142.6,565,142.8,564.1,142.8z"/>
		<path class="st1" d="M573.6,142.6l-0.2-1.3h-0.1c-0.5,0.6-0.8,0.9-1.3,1.1s-0.9,0.3-1.6,0.3c-0.8,0-1.5-0.2-1.9-0.7
			c-0.5-0.5-0.7-1-0.7-1.8c0-1.7,1.4-2.6,4.1-2.7h1.5v-0.6c0-0.7-0.1-1.1-0.5-1.5c-0.3-0.3-0.8-0.5-1.4-0.5c-0.7,0-1.5,0.2-2.4,0.7
			l-0.3-1c0.5-0.2,0.9-0.5,1.4-0.6s1-0.2,1.5-0.2c1,0,1.8,0.2,2.3,0.7s0.7,1.1,0.7,2.2v5.8h-1.1V142.6z M570.7,141.7
			c0.8,0,1.5-0.2,1.9-0.7c0.5-0.5,0.7-1,0.7-1.8v-0.8H572c-1,0-1.8,0.2-2.3,0.5c-0.5,0.2-0.7,0.7-0.7,1.4c0,0.5,0.1,0.8,0.5,1
			C569.8,141.6,570.2,141.7,570.7,141.7z"/>
		<path class="st1" d="M580,141.7c0.2,0,0.5,0,0.7,0s0.3-0.1,0.5-0.1v1c-0.1,0.1-0.3,0.1-0.6,0.1s-0.6,0.1-0.7,0.1
			c-1.6,0-2.5-0.9-2.5-2.6v-5.1h-1.3v-0.6l1.3-0.6l0.6-1.8h0.8v1.9h2.5v1h-2.6v5c0,0.6,0.1,0.9,0.3,1.1
			C579.2,141.5,579.5,141.7,580,141.7z"/>
		<path class="st1" d="M582.7,131.7c0-0.3,0.1-0.6,0.2-0.7c0.1-0.1,0.3-0.2,0.6-0.2c0.2,0,0.3,0.1,0.6,0.2c0.1,0.1,0.2,0.3,0.2,0.7
			s-0.1,0.5-0.2,0.7c-0.1,0.1-0.3,0.2-0.6,0.2c-0.2,0-0.5-0.1-0.6-0.2C582.8,132.3,582.7,132,582.7,131.7z M584.2,142.6H583V134h1.3
			L584.2,142.6L584.2,142.6z"/>
		<path class="st1" d="M594.2,138.3c0,1.4-0.3,2.5-1,3.3s-1.7,1.1-2.9,1.1c-0.8,0-1.5-0.2-2.1-0.6s-1-0.9-1.4-1.6s-0.5-1.5-0.5-2.4
			c0-1.4,0.3-2.5,1-3.3s1.7-1.1,2.9-1.1c1.1,0,2.2,0.3,2.9,1.1C593.9,135.9,594.2,136.9,594.2,138.3z M587.7,138.3
			c0,1.1,0.2,1.9,0.7,2.5s1,0.9,1.9,0.9c0.8,0,1.5-0.2,1.9-0.8c0.5-0.6,0.7-1.4,0.7-2.5s-0.2-1.9-0.7-2.5s-1.1-0.8-1.9-0.8
			c-0.8,0-1.5,0.2-1.9,0.8C588,136.4,587.7,137.2,587.7,138.3z"/>
		<path class="st1" d="M602.5,142.6v-5.5c0-0.7-0.1-1.3-0.5-1.6c-0.3-0.3-0.8-0.6-1.5-0.6c-0.9,0-1.6,0.2-1.9,0.7
			c-0.5,0.5-0.6,1.3-0.6,2.4v4.5h-1.3v-8.6h1l0.2,1.1h0.1c0.2-0.5,0.7-0.8,1.1-1c0.5-0.2,1-0.3,1.6-0.3c1,0,1.8,0.2,2.3,0.8
			c0.6,0.5,0.8,1.3,0.8,2.4v5.6h-1.5v0.1H602.5z"/>
	</g>
	<g class="st0">
		<path class="st1" d="M513.3,159.4c0,0.8-0.3,1.4-0.9,1.8c-0.6,0.5-1.3,0.7-2.4,0.7s-2-0.2-2.5-0.6V160c0.4,0.2,0.8,0.3,1.3,0.5
			c0.4,0.1,0.9,0.2,1.3,0.2c0.7,0,1.1-0.1,1.5-0.3c0.3-0.2,0.6-0.6,0.6-1c0-0.3-0.1-0.6-0.4-0.8c-0.3-0.2-0.8-0.6-1.7-0.8
			c-0.8-0.3-1.3-0.6-1.7-0.8c-0.3-0.2-0.6-0.5-0.8-0.8c-0.1-0.2-0.2-0.6-0.2-1c0-0.7,0.2-1.3,0.8-1.6c0.6-0.5,1.3-0.6,2.2-0.6
			c0.9,0,1.8,0.2,2.6,0.6l-0.4,1c-0.9-0.3-1.5-0.6-2.2-0.6c-0.6,0-1,0.1-1.3,0.3c-0.3,0.2-0.4,0.5-0.4,0.8c0,0.2,0.1,0.5,0.2,0.6
			s0.3,0.3,0.6,0.5s0.8,0.3,1.4,0.7c1,0.3,1.7,0.7,2,1.1C513.1,158.4,513.3,158.8,513.3,159.4z"/>
		<path class="st1" d="M518.8,161.9c-1.2,0-2.2-0.3-2.9-1.1c-0.7-0.8-1.1-1.8-1.1-3.2c0-1.4,0.3-2.5,1-3.3s1.5-1.3,2.6-1.3
			c1,0,1.9,0.3,2.4,1s0.9,1.6,0.9,2.7v0.8H516c0,1,0.2,1.7,0.8,2.3c0.4,0.6,1.1,0.8,2,0.8s1.8-0.2,2.6-0.6v1.1
			c-0.4,0.2-0.9,0.3-1.2,0.5C519.8,161.9,519.4,161.9,518.8,161.9z M518.5,154.2c-0.7,0-1.2,0.2-1.5,0.7c-0.4,0.5-0.7,1-0.7,1.8h4.3
			c0-0.8-0.2-1.5-0.6-1.8C519.6,154.4,519.2,154.2,518.5,154.2z"/>
		<path class="st1" d="M527.3,161.9c-1.2,0-2.1-0.3-2.8-1.1c-0.7-0.8-1-1.8-1-3.2c0-1.5,0.3-2.5,1-3.3s1.7-1.1,2.9-1.1
			c0.4,0,0.8,0,1.2,0.1s0.7,0.2,0.9,0.3l-0.3,1.1c-0.3-0.1-0.6-0.2-0.9-0.3c-0.3-0.1-0.7-0.1-0.9-0.1c-1.7,0-2.5,1.1-2.5,3.3
			c0,1,0.2,1.8,0.7,2.4c0.4,0.6,1,0.8,1.9,0.8c0.7,0,1.4-0.1,2.1-0.5v1.1C528.9,161.8,528.1,161.9,527.3,161.9z"/>
		<path class="st1" d="M532.5,153.3v5.6c0,0.7,0.1,1.3,0.4,1.6c0.3,0.3,0.8,0.6,1.4,0.6c0.9,0,1.5-0.2,1.9-0.7s0.6-1.3,0.6-2.4v-4.5
			h1.2v8.6h-1l-0.2-1.1h-0.1c-0.2,0.5-0.7,0.8-1.1,0.9c-0.4,0.2-1,0.3-1.5,0.3c-1,0-1.8-0.2-2.2-0.7c-0.6-0.5-0.8-1.3-0.8-2.4v-5.6
			h1.4L532.5,153.3L532.5,153.3z"/>
		<path class="st1" d="M544.6,153c0.3,0,0.7,0,1,0.1l-0.2,1.3c-0.3-0.1-0.7-0.1-0.9-0.1c-0.7,0-1.2,0.2-1.8,0.8
			c-0.4,0.6-0.7,1.3-0.7,2.1v4.6h-1.2v-8.6h1l0.1,1.6h0.1c0.3-0.6,0.7-1,1.1-1.3C543.6,153.3,544.1,153,544.6,153z"/>
		<path class="st1" d="M547,150.9c0-0.3,0.1-0.6,0.2-0.7c0.1-0.1,0.3-0.2,0.6-0.2c0.2,0,0.3,0.1,0.6,0.2c0.2,0.1,0.2,0.3,0.2,0.7
			s-0.1,0.5-0.2,0.7c-0.1,0.1-0.3,0.2-0.6,0.2c-0.2,0-0.4-0.1-0.6-0.2C547,151.4,547,151.2,547,150.9z M548.4,161.8h-1.2v-8.6h1.2
			V161.8z"/>
		<path class="st1" d="M553.6,160.9c0.2,0,0.4,0,0.7,0c0.2,0,0.3-0.1,0.4-0.1v1c-0.1,0.1-0.3,0.1-0.6,0.1c-0.2,0-0.6,0.1-0.7,0.1
			c-1.5,0-2.4-0.9-2.4-2.6v-5.1h-1.2v-0.6l1.2-0.6l0.6-1.8h0.8v1.9h2.4v1h-2.4v5c0,0.6,0.1,0.9,0.3,1.1S553.2,160.9,553.6,160.9z"/>
		<path class="st1" d="M555.1,153.3h1.3l1.8,4.9c0.4,1.1,0.7,1.9,0.8,2.4h0.1c0.1-0.2,0.2-0.7,0.4-1.4c0.2-0.7,0.9-2.6,2.1-5.9h1.3
			l-3.5,9.7c-0.3,0.9-0.8,1.6-1.2,2.1s-1,0.6-1.8,0.6c-0.3,0-0.8,0-1.1-0.1v-1c0.3,0.1,0.6,0.1,0.9,0.1c0.9,0,1.4-0.5,1.9-1.5
			l0.4-1.3L555.1,153.3z"/>
		<path class="st1" d="M573.6,159.4c0,0.8-0.3,1.4-0.9,1.8c-0.6,0.5-1.3,0.7-2.4,0.7s-2-0.2-2.5-0.6V160c0.4,0.2,0.8,0.3,1.3,0.5
			c0.4,0.1,0.9,0.2,1.3,0.2c0.7,0,1.1-0.1,1.5-0.3c0.3-0.2,0.6-0.6,0.6-1c0-0.3-0.1-0.6-0.4-0.8c-0.3-0.2-0.8-0.6-1.7-0.8
			c-0.8-0.3-1.3-0.6-1.7-0.8c-0.3-0.2-0.6-0.5-0.8-0.8c-0.1-0.2-0.2-0.6-0.2-1c0-0.7,0.2-1.3,0.8-1.6c0.6-0.5,1.3-0.6,2.2-0.6
			s1.8,0.2,2.6,0.6l-0.4,1c-0.9-0.3-1.5-0.6-2.2-0.6c-0.6,0-1,0.1-1.3,0.3c-0.3,0.2-0.4,0.5-0.4,0.8c0,0.2,0.1,0.5,0.2,0.6
			c0.1,0.1,0.3,0.3,0.6,0.5c0.2,0.1,0.8,0.3,1.4,0.7c1,0.3,1.7,0.7,2,1.1C573.4,158.4,573.6,158.8,573.6,159.4z"/>
		<path class="st1" d="M579.1,161.9c-1.2,0-2.2-0.3-2.9-1.1c-0.7-0.8-1.1-1.8-1.1-3.2c0-1.4,0.3-2.5,1-3.3s1.5-1.3,2.6-1.3
			c1,0,1.9,0.3,2.4,1s0.9,1.6,0.9,2.7v0.8h-5.6c0,1,0.2,1.7,0.8,2.3c0.4,0.6,1.1,0.8,2,0.8s1.8-0.2,2.6-0.6v1.1
			c-0.4,0.2-0.9,0.3-1.2,0.5C580.1,161.9,579.6,161.9,579.1,161.9z M578.8,154.2c-0.7,0-1.2,0.2-1.5,0.7c-0.4,0.5-0.7,1-0.7,1.8h4.3
			c0-0.8-0.2-1.5-0.6-1.8C579.9,154.4,579.4,154.2,578.8,154.2z"/>
		<path class="st1" d="M588,153c0.3,0,0.7,0,1,0.1l-0.2,1.3c-0.3-0.1-0.7-0.1-0.9-0.1c-0.7,0-1.2,0.2-1.8,0.8
			c-0.4,0.6-0.7,1.3-0.7,2.1v4.6h-1.2v-8.6h1l0.1,1.6h0.1c0.3-0.6,0.7-1,1.1-1.3C587,153.3,587.5,153,588,153z"/>
		<path class="st1" d="M592.3,161.8l-3.1-8.6h1.3l1.8,5c0.4,1.1,0.7,1.9,0.7,2.3h0.1c0.1-0.2,0.2-0.8,0.6-1.7c0.3-0.9,1-2.7,2-5.7
			h1.3l-3.1,8.6h-1.5L592.3,161.8L592.3,161.8z"/>
		<path class="st1" d="M598.1,150.9c0-0.3,0.1-0.6,0.2-0.7c0.1-0.1,0.3-0.2,0.6-0.2c0.2,0,0.3,0.1,0.6,0.2c0.2,0.1,0.2,0.3,0.2,0.7
			s-0.1,0.5-0.2,0.7c-0.1,0.1-0.3,0.2-0.6,0.2c-0.2,0-0.4-0.1-0.6-0.2C598.3,151.4,598.1,151.2,598.1,150.9z M599.5,161.8h-1.2v-8.6
			h1.2V161.8z"/>
		<path class="st1" d="M605.4,161.9c-1.2,0-2.1-0.3-2.8-1.1c-0.7-0.8-1-1.8-1-3.2c0-1.5,0.3-2.5,1-3.3s1.7-1.1,2.9-1.1
			c0.4,0,0.8,0,1.2,0.1s0.7,0.2,0.9,0.3l-0.3,1.1c-0.3-0.1-0.6-0.2-0.9-0.3c-0.3-0.1-0.7-0.1-0.9-0.1c-1.7,0-2.5,1.1-2.5,3.3
			c0,1,0.2,1.8,0.7,2.4c0.4,0.6,1,0.8,1.9,0.8c0.7,0,1.4-0.1,2.1-0.5v1.1C607,161.8,606.3,161.9,605.4,161.9z"/>
		<path class="st1" d="M613,161.9c-1.2,0-2.2-0.3-2.9-1.1c-0.7-0.8-1.1-1.8-1.1-3.2c0-1.4,0.3-2.5,1-3.3s1.5-1.3,2.6-1.3
			c1,0,1.9,0.3,2.4,1c0.6,0.7,0.9,1.6,0.9,2.7v0.8h-5.7c0,1,0.2,1.7,0.8,2.3c0.4,0.6,1.1,0.8,2,0.8s1.8-0.2,2.6-0.6v1.1
			c-0.4,0.2-0.9,0.3-1.2,0.5C614,161.9,613.6,161.9,613,161.9z M612.6,154.2c-0.7,0-1.2,0.2-1.5,0.7c-0.4,0.5-0.7,1-0.7,1.8h4.3
			c0-0.8-0.2-1.5-0.6-1.8C613.8,154.4,613.2,154.2,612.6,154.2z"/>
		<path class="st1" d="M623.5,159.4c0,0.8-0.3,1.4-0.9,1.8c-0.6,0.5-1.3,0.7-2.4,0.7s-2-0.2-2.5-0.6V160c0.4,0.2,0.8,0.3,1.3,0.5
			c0.4,0.1,0.9,0.2,1.3,0.2c0.7,0,1.1-0.1,1.5-0.3c0.3-0.2,0.6-0.6,0.6-1c0-0.3-0.1-0.6-0.4-0.8c-0.3-0.2-0.8-0.6-1.7-0.8
			c-0.8-0.3-1.3-0.6-1.7-0.8c-0.3-0.2-0.6-0.5-0.8-0.8c-0.1-0.2-0.2-0.6-0.2-1c0-0.7,0.2-1.3,0.8-1.6c0.6-0.5,1.3-0.6,2.2-0.6
			s1.8,0.2,2.6,0.6l-0.4,1c-0.9-0.3-1.5-0.6-2.2-0.6c-0.6,0-1,0.1-1.3,0.3c-0.3,0.2-0.4,0.5-0.4,0.8c0,0.2,0.1,0.5,0.2,0.6
			c0.1,0.1,0.3,0.3,0.6,0.5c0.2,0.1,0.8,0.3,1.4,0.7c1,0.3,1.7,0.7,2,1.1C623.3,158.4,623.5,158.8,623.5,159.4z"/>
	</g>
</g>
<g>
	<circle class="st9" cx="564.3" cy="58.9" r="56.9"/>
	<g>
		<g>
			<path class="st10" d="M589.4,45.6c0-1.5,0-3.2,0-4.7c0-1.2-1-2-2-2c-8.8,0-15.4-2.4-21.1-7.8c-0.7-0.7-2-0.7-2.9,0
				c-5.6,5.4-12.2,7.8-21.1,7.8c-1.2,0-2,1-2,2c0,1.5,0,2.9,0,4.7c-0.2,14.7-0.7,35,24,43.6c0.2,0,0.5,0,0.7,0s0.5,0,0.7,0
				C590.1,80.6,589.9,60.5,589.4,45.6z M564.9,85c-21.1-7.6-20.8-24.5-20.6-39.2c0-1,0-1.7,0-2.7c8.3-0.2,14.9-2.9,20.6-7.8
				c5.6,4.9,12.2,7.3,20.6,7.8c0,0.7,0,1.7,0,2.7C585.7,60.5,586,77.4,564.9,85z"/>
			<path class="st10" d="M572,52.7l-10,10l-4.2-4.2c-0.7-0.7-2.2-0.7-2.9,0s-0.7,2.2,0,2.9l5.6,5.6c0.5,0.5,1,0.5,1.5,0.5
				s1-0.2,1.5-0.5l11.3-11.3c0.7-0.7,0.7-2.2,0-2.9C574,52,572.7,52,572,52.7z"/>
		</g>
	</g>
</g>
<g>
	<g class="st0">
		<path class="st1" d="M659.3,142.5l-1.4-3.7h-4.6l-1.4,3.7h-1.5l4.6-11.4h1.1l4.5,11.4H659.3z M657.5,137.5l-1.4-3.5
			c-0.2-0.5-0.3-1-0.6-1.6c-0.1,0.5-0.2,1-0.5,1.6l-1.4,3.5H657.5z"/>
		<path class="st1" d="M666,142.6c-0.6,0-1-0.1-1.5-0.3c-0.5-0.2-0.8-0.6-1.1-0.9h-0.1c0.1,0.5,0.1,1,0.1,1.4v3.5h-1.3v-12.4h1
			l0.2,1.1h0.1c0.3-0.5,0.7-0.8,1.1-1c0.5-0.2,0.9-0.3,1.5-0.3c1.1,0,2.1,0.3,2.6,1.1c0.6,0.8,0.9,1.8,0.9,3.3
			c0,1.4-0.3,2.5-0.9,3.3C668,142.2,667.2,142.6,666,142.6z M665.8,134.8c-0.9,0-1.5,0.2-1.9,0.7c-0.5,0.5-0.6,1.3-0.6,2.3v0.3
			c0,1.3,0.2,2.1,0.6,2.6c0.5,0.6,1,0.8,1.9,0.8c0.7,0,1.4-0.3,1.7-0.9c0.5-0.6,0.6-1.4,0.6-2.5c0-1-0.2-1.9-0.6-2.4
			C667.2,135,666.6,134.8,665.8,134.8z"/>
		<path class="st1" d="M675.8,142.6c-0.6,0-1-0.1-1.5-0.3c-0.5-0.2-0.8-0.6-1.1-0.9h-0.1c0.1,0.5,0.1,1,0.1,1.4v3.5H672v-12.4h1
			l0.2,1.1h0.1c0.3-0.5,0.7-0.8,1.1-1c0.5-0.2,0.9-0.3,1.5-0.3c1.1,0,2.1,0.3,2.6,1.1c0.6,0.8,0.9,1.8,0.9,3.3
			c0,1.4-0.3,2.5-0.9,3.3C677.8,142.2,676.9,142.6,675.8,142.6z M675.6,134.8c-0.9,0-1.5,0.2-1.9,0.7c-0.5,0.5-0.6,1.3-0.6,2.3v0.3
			c0,1.3,0.2,2.1,0.6,2.6c0.5,0.6,1,0.8,1.9,0.8c0.7,0,1.4-0.3,1.7-0.9c0.5-0.6,0.7-1.4,0.7-2.5c0-1-0.2-1.9-0.7-2.4
			C677,135,676.4,134.8,675.6,134.8z"/>
		<path class="st1" d="M682.9,142.5h-1.3v-12.1h1.3V142.5z"/>
		<path class="st1" d="M685.5,131.5c0-0.3,0.1-0.6,0.2-0.7c0.1-0.1,0.3-0.2,0.6-0.2c0.2,0,0.3,0.1,0.6,0.2c0.2,0.1,0.2,0.3,0.2,0.7
			s-0.1,0.5-0.2,0.7c-0.1,0.1-0.3,0.2-0.6,0.2c-0.2,0-0.5-0.1-0.6-0.2C685.7,132.1,685.5,131.8,685.5,131.5z M686.9,142.5h-1.3v-8.6
			h1.3V142.5z"/>
		<path class="st1" d="M693.1,142.6c-1.3,0-2.2-0.3-2.9-1.1c-0.7-0.8-1-1.8-1-3.2c0-1.5,0.3-2.5,1-3.3s1.7-1.1,3-1.1
			c0.5,0,0.8,0,1.3,0.1s0.7,0.2,0.9,0.3l-0.3,1.1c-0.3-0.1-0.6-0.2-0.9-0.3s-0.7-0.1-0.9-0.1c-1.7,0-2.6,1.1-2.6,3.3
			c0,1,0.2,1.8,0.7,2.4s1,0.8,1.9,0.8c0.7,0,1.5-0.1,2.2-0.5v1.1C694.7,142.5,694,142.6,693.1,142.6z"/>
		<path class="st1" d="M702.5,142.5l-0.2-1.3h-0.1c-0.5,0.6-0.8,0.9-1.3,1.1s-0.9,0.3-1.6,0.3c-0.8,0-1.5-0.2-1.9-0.7
			c-0.5-0.5-0.7-1-0.7-1.8c0-1.7,1.4-2.6,4.1-2.7h1.5v-0.6c0-0.7-0.1-1.1-0.5-1.5c-0.3-0.3-0.8-0.5-1.4-0.5c-0.7,0-1.5,0.2-2.4,0.7
			l-0.3-1c0.5-0.2,0.9-0.5,1.4-0.6s1-0.2,1.5-0.2c1,0,1.8,0.2,2.3,0.7s0.7,1.1,0.7,2.2v5.8h-1.1V142.5z M699.7,141.5
			c0.8,0,1.5-0.2,1.9-0.7c0.5-0.5,0.7-1,0.7-1.8v-0.8H701c-1,0-1.8,0.2-2.3,0.5c-0.5,0.2-0.7,0.7-0.7,1.4c0,0.5,0.1,0.8,0.5,1
			C698.8,141.4,699.1,141.5,699.7,141.5z"/>
		<path class="st1" d="M708.9,141.5c0.2,0,0.5,0,0.7,0s0.3-0.1,0.5-0.1v1c-0.1,0.1-0.3,0.1-0.6,0.1c-0.2,0-0.6,0.1-0.7,0.1
			c-1.6,0-2.5-0.9-2.5-2.6v-5.1H705v-0.6l1.3-0.6l0.6-1.8h0.8v1.9h2.5v1h-2.6v5c0,0.6,0.1,0.9,0.3,1.1
			C708.1,141.3,708.5,141.5,708.9,141.5z"/>
		<path class="st1" d="M711.7,131.5c0-0.3,0.1-0.6,0.2-0.7c0.1-0.1,0.3-0.2,0.6-0.2c0.2,0,0.3,0.1,0.6,0.2c0.2,0.1,0.2,0.3,0.2,0.7
			s-0.1,0.5-0.2,0.7c-0.1,0.1-0.3,0.2-0.6,0.2c-0.2,0-0.5-0.1-0.6-0.2C711.8,132.1,711.7,131.8,711.7,131.5z M713.2,142.5h-1.3v-8.6
			h1.3V142.5z"/>
		<path class="st1" d="M723.2,138.1c0,1.4-0.3,2.5-1,3.3s-1.7,1.1-2.9,1.1c-0.8,0-1.5-0.2-2.1-0.6c-0.6-0.3-1-0.9-1.4-1.6
			c-0.3-0.7-0.5-1.5-0.5-2.4c0-1.4,0.3-2.5,1-3.3s1.7-1.1,2.9-1.1s2.2,0.3,2.9,1.1C722.9,135.7,723.2,136.7,723.2,138.1z
			 M716.7,138.1c0,1.1,0.2,1.9,0.7,2.5s1,0.9,1.9,0.9s1.5-0.2,1.9-0.8c0.5-0.6,0.7-1.4,0.7-2.5s-0.2-1.9-0.7-2.5s-1.1-0.8-1.9-0.8
			s-1.5,0.2-1.9,0.8C716.9,136.3,716.7,137,716.7,138.1z"/>
		<path class="st1" d="M731.4,142.5V137c0-0.7-0.1-1.3-0.5-1.6s-0.8-0.6-1.5-0.6c-0.9,0-1.6,0.2-1.9,0.7c-0.3,0.5-0.6,1.3-0.6,2.4
			v4.5h-1.3v-8.6h1l0.2,1.1h0.1c0.2-0.5,0.7-0.8,1.1-1c0.5-0.2,1-0.3,1.6-0.3c1,0,1.8,0.2,2.3,0.8c0.6,0.5,0.8,1.3,0.8,2.4v5.6h-1.5
			v0.1H731.4z"/>
	</g>
	<g class="st0">
		<path class="st1" d="M673.2,160.7c0.2,0,0.5,0,0.7,0s0.3-0.1,0.5-0.1v1c-0.1,0.1-0.3,0.1-0.6,0.1c-0.2,0-0.6,0.1-0.7,0.1
			c-1.6,0-2.5-0.9-2.5-2.6v-5.1h-1.3v-0.6l1.3-0.6l0.6-1.8h0.8v1.9h2.5v1H672v5c0,0.6,0.1,0.9,0.3,1.1
			C672.4,160.5,672.8,160.7,673.2,160.7z"/>
		<path class="st1" d="M679.7,161.7c-1.3,0-2.3-0.3-3-1.1c-0.7-0.8-1.1-1.8-1.1-3.2c0-1.4,0.3-2.5,1-3.3s1.6-1.3,2.7-1.3
			c1,0,1.9,0.3,2.5,1s0.9,1.6,0.9,2.7v0.8h-5.9c0,1,0.2,1.7,0.8,2.3c0.5,0.6,1.1,0.8,2.1,0.8c0.9,0,1.8-0.2,2.7-0.6v1.1
			c-0.5,0.2-0.9,0.3-1.3,0.5C680.8,161.7,680.3,161.7,679.7,161.7z M679.3,154c-0.7,0-1.3,0.2-1.6,0.7c-0.5,0.5-0.7,1-0.7,1.8h4.5
			c0-0.8-0.2-1.5-0.6-1.8C680.5,154.2,680,154,679.3,154z"/>
		<path class="st1" d="M690.6,159.2c0,0.8-0.3,1.4-0.9,1.8c-0.6,0.5-1.4,0.7-2.5,0.7s-2.1-0.2-2.6-0.6v-1.3c0.5,0.2,0.8,0.3,1.4,0.5
			c0.5,0.1,0.9,0.2,1.4,0.2c0.7,0,1.1-0.1,1.6-0.3c0.3-0.2,0.6-0.6,0.6-1c0-0.3-0.1-0.6-0.5-0.8c-0.3-0.2-0.8-0.6-1.7-0.8
			c-0.8-0.3-1.4-0.6-1.7-0.8c-0.3-0.2-0.6-0.5-0.8-0.8s-0.2-0.6-0.2-1c0-0.7,0.2-1.3,0.8-1.6c0.6-0.5,1.4-0.6,2.3-0.6
			c0.9,0,1.8,0.2,2.7,0.6l-0.5,1c-0.9-0.3-1.6-0.6-2.3-0.6c-0.6,0-1,0.1-1.4,0.3c-0.3,0.2-0.5,0.5-0.5,0.8c0,0.2,0.1,0.5,0.2,0.6
			c0.1,0.1,0.3,0.3,0.6,0.5c0.2,0.1,0.8,0.3,1.5,0.7c1,0.3,1.7,0.7,2.1,1.1C690.3,158.2,690.6,158.7,690.6,159.2z"/>
		<path class="st1" d="M695.4,160.7c0.2,0,0.5,0,0.7,0s0.3-0.1,0.5-0.1v1c-0.1,0.1-0.3,0.1-0.6,0.1s-0.6,0.1-0.7,0.1
			c-1.6,0-2.5-0.9-2.5-2.6v-5.1h-1.3v-0.6l1.3-0.6l0.6-1.8h0.8v1.9h2.5v1h-2.5v5c0,0.6,0.1,0.9,0.3,1.1
			C694.7,160.5,695,160.7,695.4,160.7z"/>
		<path class="st1" d="M698.2,150.7c0-0.3,0.1-0.6,0.2-0.7c0.1-0.1,0.3-0.2,0.6-0.2c0.2,0,0.3,0.1,0.6,0.2c0.1,0.1,0.2,0.3,0.2,0.7
			s-0.1,0.5-0.2,0.7c-0.1,0.1-0.3,0.2-0.6,0.2c-0.2,0-0.5-0.1-0.6-0.2C698.2,151.2,698.2,151,698.2,150.7z M699.6,161.6h-1.3V153
			h1.3V161.6z"/>
		<path class="st1" d="M708.1,161.6v-5.5c0-0.7-0.1-1.3-0.5-1.6c-0.3-0.3-0.8-0.6-1.5-0.6c-0.9,0-1.6,0.2-1.9,0.7
			c-0.5,0.5-0.6,1.3-0.6,2.4v4.5h-1.3v-8.6h1l0.2,1.1h0.1c0.2-0.5,0.7-0.8,1.1-1c0.5-0.2,1-0.3,1.6-0.3c1,0,1.8,0.2,2.3,0.8
			c0.6,0.5,0.8,1.3,0.8,2.4v5.6h-1.5v0.1H708.1z"/>
		<path class="st1" d="M719.1,153.1v0.8l-1.6,0.2c0.1,0.2,0.2,0.5,0.3,0.7c0.1,0.3,0.2,0.6,0.2,1c0,0.8-0.3,1.5-0.9,2.1
			c-0.6,0.5-1.4,0.8-2.4,0.8c-0.2,0-0.5,0-0.7-0.1c-0.6,0.3-0.8,0.7-0.8,1.1c0,0.2,0.1,0.5,0.3,0.6s0.6,0.1,1,0.1h1.5
			c0.9,0,1.6,0.2,2.2,0.6c0.5,0.3,0.8,0.9,0.8,1.7c0,0.9-0.3,1.7-1.1,2.2s-1.8,0.8-3.3,0.8c-1.1,0-1.9-0.2-2.6-0.6
			c-0.6-0.5-0.9-1-0.9-1.7c0-0.6,0.1-0.9,0.5-1.4c0.3-0.3,0.8-0.7,1.4-0.8c-0.2-0.1-0.5-0.2-0.6-0.5c-0.1-0.2-0.2-0.5-0.2-0.7
			c0-0.3,0.1-0.6,0.2-0.8s0.5-0.5,0.8-0.7c-0.5-0.2-0.8-0.5-1-0.9c-0.2-0.5-0.5-0.9-0.5-1.5c0-0.9,0.2-1.7,0.8-2.2s1.4-0.8,2.4-0.8
			c0.5,0,0.8,0,1.3,0.1h3v-0.1H719.1z M712.4,163c0,0.5,0.2,0.8,0.6,1s0.9,0.3,1.7,0.3c1.1,0,1.9-0.1,2.4-0.5
			c0.6-0.3,0.8-0.8,0.8-1.4c0-0.5-0.1-0.8-0.5-0.9c-0.3-0.2-0.8-0.2-1.6-0.2h-1.6c-0.6,0-1,0.1-1.4,0.5S712.4,162.5,712.4,163z
			 M713,155.8c0,0.6,0.1,1,0.5,1.4c0.3,0.3,0.8,0.5,1.4,0.5c1.3,0,1.9-0.6,1.9-1.8s-0.7-1.9-1.9-1.9c-0.6,0-1,0.1-1.4,0.5
			S713,155.1,713,155.8z"/>
	</g>
</g>
<circle class="st2" cx="691.1" cy="58.9" r="56.9"/>
<g>
	<line class="st11" x1="681.9" y1="62.5" x2="658.1" y2="62.5"/>
	<circle class="st12" cx="704.4" cy="59.5" r="23.3"/>
	<circle class="st12" cx="704.4" cy="59.5" r="16.4"/>
	<line class="st11" x1="681.2" y1="57.6" x2="657.6" y2="57.6"/>
	<path class="st12" d="M670.4,64h-16c-2,0-3.7-1.7-3.7-3.7v-1.2c0-2,1.7-3.7,3.7-3.7h16c2,0,3.7,1.7,3.7,3.7v1.2
		C674,62.4,672.4,64,670.4,64z"/>
	<path class="st10" d="M709.5,54.2l-7.5,7.5l-3.2-3.2c-0.7-0.7-1.5-0.7-2.2,0s-0.7,1.5,0,2.2l4.3,4.3c0.3,0.3,0.7,0.5,1.2,0.5
		c0.3,0,0.8-0.2,1.2-0.5l8.5-8.5c0.7-0.7,0.7-1.5,0-2.2C711.2,53.7,710.2,53.7,709.5,54.2z"/>
</g>
<g>
	<g class="st0">
		<path class="st1" d="M275.5,142.9l-1.4-3.7h-4.6l-1.4,3.7h-1.5l4.6-11.4h1.1l4.5,11.4H275.5z M273.7,138l-1.4-3.5
			c-0.2-0.5-0.3-1-0.6-1.6c-0.1,0.5-0.2,1-0.5,1.6l-1.4,3.5H273.7z"/>
		<path class="st1" d="M282.2,143c-0.6,0-1-0.1-1.5-0.3c-0.5-0.2-0.8-0.6-1.1-0.9h-0.1c0.1,0.5,0.1,1,0.1,1.4v3.5h-1.3v-12.4h1
			l0.2,1.1h0.1c0.3-0.5,0.7-0.8,1.1-1c0.5-0.2,0.9-0.3,1.5-0.3c1.1,0,2.1,0.3,2.6,1.1c0.6,0.8,0.9,1.8,0.9,3.3
			c0,1.4-0.3,2.5-0.9,3.3C284.2,142.7,283.4,143,282.2,143z M282,135.3c-0.9,0-1.5,0.2-1.9,0.7c-0.5,0.5-0.6,1.3-0.6,2.3v0.3
			c0,1.3,0.2,2.1,0.6,2.6c0.5,0.6,1,0.8,1.9,0.8c0.7,0,1.4-0.3,1.7-0.9s0.7-1.4,0.7-2.5c0-1-0.2-1.9-0.7-2.4
			C283.4,135.5,282.8,135.3,282,135.3z"/>
		<path class="st1" d="M292,143c-0.6,0-1-0.1-1.5-0.3c-0.5-0.2-0.8-0.6-1.1-0.9h-0.1c0.1,0.5,0.1,1,0.1,1.4v3.5h-1.3v-12.4h1
			l0.2,1.1h0.1c0.3-0.5,0.7-0.8,1.1-1c0.5-0.2,0.9-0.3,1.5-0.3c1.1,0,2.1,0.3,2.6,1.1c0.6,0.8,0.9,1.8,0.9,3.3
			c0,1.4-0.3,2.5-0.9,3.3C294,142.7,293.1,143,292,143z M291.8,135.3c-0.9,0-1.5,0.2-1.9,0.7c-0.5,0.5-0.6,1.3-0.6,2.3v0.3
			c0,1.3,0.2,2.1,0.6,2.6c0.5,0.6,1,0.8,1.9,0.8c0.7,0,1.4-0.3,1.7-0.9s0.7-1.4,0.7-2.5c0-1-0.2-1.9-0.7-2.4
			C293.2,135.5,292.6,135.3,291.8,135.3z"/>
		<path class="st1" d="M299.1,142.9h-1.3v-12.1h1.3V142.9z"/>
		<path class="st1" d="M301.7,132c0-0.3,0.1-0.6,0.2-0.7s0.3-0.2,0.6-0.2c0.2,0,0.3,0.1,0.6,0.2c0.2,0.1,0.2,0.3,0.2,0.7
			c0,0.3-0.1,0.5-0.2,0.7c-0.1,0.1-0.3,0.2-0.6,0.2c-0.2,0-0.5-0.1-0.6-0.2C301.8,132.5,301.7,132.3,301.7,132z M303.1,142.9h-1.3
			v-8.6h1.3V142.9z"/>
		<path class="st1" d="M309.3,143c-1.3,0-2.2-0.3-2.9-1.1c-0.7-0.8-1-1.8-1-3.2c0-1.5,0.3-2.5,1-3.3s1.7-1.1,3-1.1
			c0.5,0,0.8,0,1.3,0.1s0.7,0.2,0.9,0.3l-0.3,1.1c-0.3-0.1-0.6-0.2-0.9-0.3c-0.3-0.1-0.7-0.1-0.9-0.1c-1.7,0-2.6,1.1-2.6,3.3
			c0,1,0.2,1.8,0.7,2.4s1,0.8,1.9,0.8c0.7,0,1.5-0.1,2.2-0.5v1.1C310.9,142.9,310.2,143,309.3,143z"/>
		<path class="st1" d="M318.7,142.9l-0.2-1.3h-0.1c-0.5,0.6-0.8,0.9-1.3,1.1s-0.9,0.3-1.6,0.3c-0.8,0-1.5-0.2-1.9-0.7
			c-0.5-0.5-0.7-1-0.7-1.8c0-1.7,1.4-2.6,4.1-2.7h1.5v-0.6c0-0.7-0.1-1.1-0.5-1.5s-0.8-0.5-1.4-0.5c-0.7,0-1.5,0.2-2.4,0.7l-0.3-1
			c0.5-0.2,0.9-0.5,1.4-0.6s1-0.2,1.5-0.2c1,0,1.8,0.2,2.3,0.7s0.7,1.1,0.7,2.2v5.8h-1.1V142.9z M315.8,142c0.8,0,1.5-0.2,1.9-0.7
			c0.5-0.5,0.7-1,0.7-1.8v-0.8h-1.3c-1,0-1.8,0.2-2.3,0.5c-0.5,0.2-0.7,0.7-0.7,1.4c0,0.5,0.1,0.8,0.5,1S315.3,142,315.8,142z"/>
		<path class="st1" d="M325.1,142c0.2,0,0.5,0,0.7,0s0.3-0.1,0.5-0.1v1c-0.1,0.1-0.3,0.1-0.6,0.1c-0.2,0-0.6,0.1-0.7,0.1
			c-1.6,0-2.5-0.9-2.5-2.6v-5.1h-1.3v-0.6l1.3-0.6l0.6-1.8h0.8v1.9h2.5v1h-2.6v5c0,0.6,0.1,0.9,0.3,1.1
			C324.3,141.8,324.7,142,325.1,142z"/>
		<path class="st1" d="M327.9,132c0-0.3,0.1-0.6,0.2-0.7s0.3-0.2,0.6-0.2s0.3,0.1,0.6,0.2c0.2,0.1,0.2,0.3,0.2,0.7
			c0,0.3-0.1,0.5-0.2,0.7c-0.1,0.1-0.3,0.2-0.6,0.2s-0.5-0.1-0.6-0.2C328,132.5,327.9,132.3,327.9,132z M329.3,142.9H328v-8.6h1.3
			V142.9z"/>
		<path class="st1" d="M339.4,138.6c0,1.4-0.3,2.5-1,3.3s-1.7,1.1-2.9,1.1c-0.8,0-1.5-0.2-2.1-0.6c-0.6-0.3-1-0.9-1.4-1.6
			c-0.3-0.7-0.5-1.5-0.5-2.4c0-1.4,0.3-2.5,1-3.3s1.7-1.1,2.9-1.1c1.1,0,2.2,0.3,2.9,1.1C339,136,339.4,137.2,339.4,138.6z
			 M332.9,138.6c0,1.1,0.2,1.9,0.7,2.5s1,0.9,1.9,0.9s1.5-0.2,1.9-0.8c0.5-0.6,0.7-1.4,0.7-2.5s-0.2-1.9-0.7-2.5s-1.1-0.8-1.9-0.8
			s-1.5,0.2-1.9,0.8S332.9,137.4,332.9,138.6z"/>
		<path class="st1" d="M347.6,142.9v-5.5c0-0.7-0.1-1.3-0.5-1.6c-0.3-0.3-0.8-0.6-1.5-0.6c-0.9,0-1.6,0.2-1.9,0.7s-0.6,1.3-0.6,2.4
			v4.5h-1.3v-8.6h1l0.2,1.1h0.1c0.2-0.5,0.7-0.8,1.1-1c0.5-0.2,1-0.3,1.6-0.3c1,0,1.8,0.2,2.3,0.8c0.6,0.5,0.8,1.3,0.8,2.4v5.6h-1.5
			v0.1H347.6z"/>
	</g>
	<g class="st0">
		<path class="st1" d="M268.2,162.1v-5.6c0-0.7-0.1-1.1-0.5-1.5s-0.8-0.5-1.4-0.5c-0.8,0-1.4,0.2-1.8,0.7c-0.5,0.5-0.6,1.1-0.6,2.2
			v4.8h-1.3v-5.6c0-0.7-0.1-1.1-0.5-1.5s-0.8-0.5-1.4-0.5c-0.8,0-1.4,0.2-1.8,0.7c-0.3,0.5-0.6,1.3-0.6,2.4v4.5H257v-8.5h1l0.2,1.1
			h0.1c0.2-0.5,0.6-0.7,1-1c0.5-0.3,0.9-0.3,1.5-0.3c1.4,0,2.2,0.5,2.6,1.5h0.1c0.2-0.5,0.6-0.8,1.1-1c0.6-0.2,1-0.3,1.6-0.3
			c0.9,0,1.7,0.2,2.2,0.8c0.5,0.5,0.7,1.3,0.7,2.4v5.6h-1.3v-0.4H268.2z"/>
		<path class="st1" d="M279.5,157.8c0,1.4-0.3,2.5-1,3.3s-1.7,1.1-2.9,1.1c-0.8,0-1.5-0.2-2.1-0.6c-0.6-0.3-1-0.9-1.4-1.6
			s-0.5-1.5-0.5-2.4c0-1.4,0.3-2.5,1-3.3s1.7-1.1,2.9-1.1s2.2,0.3,2.9,1.1C279.1,155.1,279.5,156.4,279.5,157.8z M273,157.8
			c0,1.1,0.2,1.9,0.7,2.5s1,0.9,1.9,0.9s1.5-0.2,1.9-0.8c0.5-0.6,0.7-1.4,0.7-2.5s-0.2-1.9-0.7-2.5s-1.1-0.8-1.9-0.8
			s-1.5,0.2-1.9,0.8C273.2,155.9,273,156.6,273,157.8z"/>
		<path class="st1" d="M287.6,161L287.6,161c-0.7,0.9-1.6,1.3-2.7,1.3s-1.9-0.3-2.6-1.1c-0.7-0.8-0.9-1.8-0.9-3.3s0.3-2.5,0.9-3.3
			s1.5-1.1,2.6-1.1s2.1,0.5,2.6,1.3h0.1v-0.6v-0.6v-3.4h1.3v12.1h-1L287.6,161z M285,161.1c0.9,0,1.5-0.2,1.9-0.7
			c0.3-0.5,0.6-1.3,0.6-2.3v-0.2c0-1.3-0.2-2.1-0.6-2.6c-0.5-0.6-1-0.8-1.9-0.8c-0.8,0-1.4,0.3-1.7,0.9c-0.5,0.6-0.6,1.4-0.6,2.5
			s0.2,1.9,0.6,2.5S284.3,161.1,285,161.1z"/>
		<path class="st1" d="M295.2,162.2c-1.3,0-2.3-0.3-3-1.1s-1.1-1.8-1.1-3.2c0-1.4,0.3-2.5,1-3.3s1.6-1.3,2.7-1.3c1,0,1.9,0.3,2.5,1
			s0.9,1.6,0.9,2.7v0.8h-5.9c0,1,0.2,1.7,0.8,2.3s1.1,0.8,2.1,0.8s1.8-0.2,2.7-0.6v1.1c-0.5,0.2-0.9,0.3-1.3,0.5
			C296.3,162.2,295.8,162.2,295.2,162.2z M294.9,154.5c-0.7,0-1.3,0.2-1.6,0.7c-0.3,0.5-0.7,1-0.7,1.8h4.5c0-0.8-0.2-1.5-0.6-1.8
			C296,154.7,295.5,154.5,294.9,154.5z"/>
		<path class="st1" d="M304.5,153.3c0.3,0,0.7,0,1,0.1l-0.2,1.3c-0.3-0.1-0.7-0.1-0.9-0.1c-0.7,0-1.3,0.2-1.8,0.8s-0.7,1.3-0.7,2.1
			v4.6h-1.3v-8.6h1l0.1,1.6h0.1c0.3-0.6,0.7-1,1.1-1.3C303.4,153.5,303.9,153.3,304.5,153.3z"/>
		<path class="st1" d="M312.9,162.1v-5.5c0-0.7-0.1-1.3-0.5-1.6c-0.3-0.3-0.8-0.6-1.5-0.6c-0.9,0-1.6,0.2-1.9,0.7s-0.6,1.3-0.6,2.4
			v4.5h-1.3v-8.6h1l0.2,1.1h0.1c0.2-0.5,0.7-0.8,1.1-1c0.5-0.2,1-0.3,1.6-0.3c1,0,1.8,0.2,2.3,0.8c0.6,0.5,0.8,1.3,0.8,2.4v5.6h-1.5
			v0.1H312.9z"/>
		<path class="st1" d="M316.8,151.1c0-0.3,0.1-0.6,0.2-0.7s0.3-0.2,0.6-0.2c0.2,0,0.3,0.1,0.6,0.2c0.2,0.1,0.2,0.3,0.2,0.7
			s-0.1,0.5-0.2,0.7c-0.1,0.1-0.3,0.2-0.6,0.2c-0.2,0-0.5-0.1-0.6-0.2C316.8,151.7,316.8,151.5,316.8,151.1z M318.2,162.1h-1.3v-8.6
			h1.3V162.1z"/>
		<path class="st1" d="M326.4,162.1h-6.2v-0.9l4.7-6.6h-4.3v-1h5.8v1l-4.6,6.5h4.7v1H326.4z"/>
		<path class="st1" d="M333.7,162.1l-0.2-1.3h-0.1c-0.5,0.6-0.8,0.9-1.3,1.1s-0.9,0.3-1.6,0.3c-0.8,0-1.5-0.2-1.9-0.7
			c-0.5-0.5-0.7-1-0.7-1.8c0-1.7,1.4-2.6,4.1-2.7h1.5v-0.6c0-0.7-0.1-1.1-0.5-1.5c-0.3-0.3-0.8-0.5-1.4-0.5c-0.7,0-1.5,0.2-2.4,0.7
			l-0.3-1c0.5-0.2,0.9-0.5,1.4-0.6s1-0.2,1.5-0.2c1,0,1.8,0.2,2.3,0.7s0.7,1.1,0.7,2.2v5.8h-1.1V162.1z M330.7,161.2
			c0.8,0,1.5-0.2,1.9-0.7c0.5-0.5,0.7-1,0.7-1.8v-0.8H332c-1,0-1.8,0.2-2.3,0.5c-0.5,0.2-0.7,0.7-0.7,1.4c0,0.5,0.1,0.8,0.5,1
			S330.1,161.2,330.7,161.2z"/>
		<path class="st1" d="M340.1,161.2c0.2,0,0.5,0,0.7,0s0.3-0.1,0.5-0.1v1c-0.1,0.1-0.3,0.1-0.6,0.1c-0.2,0-0.6,0.1-0.7,0.1
			c-1.6,0-2.5-0.9-2.5-2.6v-5.1h-1.3V154l1.3-0.6l0.6-1.8h0.8v1.9h2.5v1h-2.5v5c0,0.6,0.1,0.9,0.3,1.1
			C339.4,161,339.6,161.2,340.1,161.2z"/>
		<path class="st1" d="M342.8,151.1c0-0.3,0.1-0.6,0.2-0.7s0.3-0.2,0.6-0.2c0.2,0,0.3,0.1,0.6,0.2s0.2,0.3,0.2,0.7s-0.1,0.5-0.2,0.7
			c-0.1,0.1-0.3,0.2-0.6,0.2c-0.2,0-0.5-0.1-0.6-0.2C342.8,151.7,342.8,151.5,342.8,151.1z M344.2,162.1h-1.3v-8.6h1.3V162.1z"/>
		<path class="st1" d="M354.3,157.8c0,1.4-0.3,2.5-1,3.3s-1.7,1.1-2.9,1.1c-0.8,0-1.5-0.2-2.1-0.6s-1-0.9-1.4-1.6s-0.5-1.5-0.5-2.4
			c0-1.4,0.3-2.5,1-3.3s1.7-1.1,2.9-1.1c1.1,0,2.2,0.3,2.9,1.1C354,155.1,354.3,156.4,354.3,157.8z M347.8,157.8
			c0,1.1,0.2,1.9,0.7,2.5s1,0.9,1.9,0.9s1.5-0.2,1.9-0.8s0.7-1.4,0.7-2.5s-0.2-1.9-0.7-2.5s-1.1-0.8-1.9-0.8s-1.5,0.2-1.9,0.8
			C348.1,155.9,347.8,156.6,347.8,157.8z"/>
		<path class="st1" d="M362.4,162.1v-5.5c0-0.7-0.1-1.3-0.5-1.6c-0.3-0.3-0.8-0.6-1.5-0.6c-0.9,0-1.6,0.2-1.9,0.7s-0.6,1.3-0.6,2.4
			v4.5h-1.3v-8.6h1l0.2,1.1h0.1c0.2-0.5,0.7-0.8,1.1-1c0.5-0.2,1-0.3,1.6-0.3c1,0,1.8,0.2,2.3,0.8c0.6,0.5,0.8,1.3,0.8,2.4v5.6h-1.5
			v0.1H362.4z"/>
	</g>
</g>
<circle class="st13" cx="310.6" cy="58.9" r="56.9"/>
<g>
	<g>
		<g>
			<path class="st10" d="M293,88c-1.9,0-3.5-0.4-4.8-1.1h-0.1H288c-0.5-0.1-0.6-0.5-0.7-0.7c-0.1-0.4,0-0.8,0.3-1.2l4.4-4.4
				c0.4-0.4,0.6-0.9,0.6-1.5s-0.2-1.2-0.6-1.5c-0.4-0.4-0.9-0.6-1.5-0.6s-1.2,0.2-1.5,0.6l-4.4,4.4c-0.2,0.1-0.5,0.2-0.8,0.2
				c-0.4,0-0.8-0.2-1-0.7c-2-4.5-1.1-9.7,2.3-13c2-2,5-3.2,8-3.2c1.3,0,2.7,0.2,3.9,0.7l0.3,0.1l5.9-5.9l-0.3-0.3
				c-0.1-0.2-0.2-0.3-0.2-0.4c-0.4-0.6-0.6-0.8-10.7-11.5l-0.4-0.4l-1.5,1.5c-0.3,0.3-0.5,0.4-0.9,0.4s-0.8-0.2-1-0.6l-5.3-9.1
				c-1.4-2.2-1.1-4.9,0.8-6.8c1.1-1.1,2.5-1.7,3.9-1.7c1,0,2,0.3,2.9,0.8l9.2,5.3c0.3,0.2,0.5,0.6,0.6,0.9c0,0.3-0.1,0.7-0.4,1
				l-1.5,1.5l0.3,0.4c2.7,2.9,4.7,5,6.1,6.6c4.3,4.7,4.3,4.7,4.9,5.1l0.6,0.5l6.8-6.8l-0.1-0.3c-1.6-4.1-0.7-8.7,2.6-11.9
				c2.1-2.1,5.1-3.3,8.2-3.3c1.7,0,3.4,0.4,4.8,1.1c0.6,0.1,0.7,0.5,0.8,0.7c0.1,0.4,0,0.8-0.3,1.2l-4.4,4.4c-0.8,0.8-0.8,2.3,0,3.1
				c0.4,0.4,0.9,0.6,1.5,0.6s1.2-0.2,1.5-0.6l4.4-4.4c0.2-0.1,0.5-0.2,0.8-0.2c0.4,0,0.8,0.2,1,0.7c2,4.5,1.1,9.7-2.3,13
				c-2,2-5,3.2-8,3.2c-1.3,0-2.7-0.2-3.9-0.7l-0.3-0.1l-6,6l14.1,10.4l5,5c1.8,1.8,2.6,4.2,2.3,6.6c-0.3,2.2-1.5,4.2-3.4,5.3
				c-1.6,1-3,1.4-4.5,1.4c-2.3,0-4.5-0.9-6.2-2.5l-4.7-4.7l-11.3-13.4l-5.4,5.4l0.1,0.3c1.6,4.1,0.7,8.7-2.6,11.9
				C299,86.7,296,88,293,88z M316.5,72.5l5.6,6.9l4.5,4.5c1.1,1.2,2.6,2,4.3,2c1.2,0,2.3-0.4,3.2-1c1.3-1,2.1-2.5,2.3-4.1
				c0.2-1.6-0.3-3.2-1.3-4.3l-4.8-4.8l-7.5-5.3L316.5,72.5z M290.8,74.7c1.2,0,2.4,0.5,3.3,1.4c0.9,0.7,1.4,1.8,1.4,2.9
				c0,1.3-0.5,2.5-1.4,3.5l-3.2,3.2h2.4c2.3,0,4.7-1,6.3-2.5c2.7-2.7,3.5-6.8,1.9-10.3c-0.2-0.7-0.2-1.1,0.2-1.5L322.1,51
				c0.3-0.3,0.6-0.3,0.9-0.3c0.2,0,0.4,0,0.6,0.1c1.2,0.6,2.5,0.8,3.9,0.8c2.4,0,4.7-1,6.5-2.7c1.9-1.9,2.8-4.7,2.5-7.5l-0.1-1
				l-3.1,3.1c-0.8,0.9-1.9,1.4-3.1,1.4s-2.4-0.5-3.3-1.4s-1.3-2-1.3-3.2c0-1.1,0.6-2.4,1.3-3.2L330,34l-1-0.1c-0.3,0-0.7-0.1-1-0.1
				c-2.4,0-5,1-6.5,2.6c-2.7,2.7-3.5,6.8-1.9,10.3c0.2,0.7,0.2,1.1-0.2,1.5L299,68.6c-0.3,0.3-0.6,0.3-0.9,0.3
				c-0.2,0-0.4-0.1-0.6-0.1c-1.2-0.6-2.5-0.8-3.9-0.8c-2.4,0-4.7,1-6.5,2.7c-1.9,1.9-2.8,4.7-2.5,7.5l0.1,1l3.1-3.1
				C288.5,75.2,289.6,74.7,290.8,74.7z M311.1,65.5c-0.2,0.3-0.2,0.3,3.3,4.7l0.3,0.4l5.8-5.8l-4.9-3.9l-4.3,4.3h-0.1L311.1,65.5z
				 M291.8,44.5c0.3,0,0.6,0.1,0.8,0.3l4.2,4.5c7.1,7.7,7.3,7.9,7.4,8.4c0,0.1,0.1,0.3,0.2,0.5l0.3,0.7l3.6-3.6l-0.7-0.5
				c-0.2-0.2-0.2-0.2-0.9-0.9c-1-1.1-3.6-4-11.3-11.9c-0.4-0.4-0.4-1.3,0-1.7l1.3-1.3l-7.6-4.8c-0.7-0.3-1.3-0.5-1.8-0.5
				c-0.8,0-1.5,0.3-2,0.9c-1,1-1.1,2.4-0.4,3.8l4.8,7.7l1.3-1.3C291.1,44.6,291.4,44.5,291.8,44.5z"/>
			<path class="st10" d="M327.6,31.6c1.6,0,3.2,0.3,4.6,1h0.1h0.1c0.2,0,0.3,0.1,0.3,0.3s0,0.4-0.2,0.7l-4.4,4.4
				c-0.5,0.5-0.7,1.2-0.7,1.9s0.3,1.4,0.7,1.9c0.5,0.5,1.2,0.7,1.9,0.7c0.7,0,1.4-0.3,1.9-0.7l4.4-4.4c0.2-0.1,0.4-0.2,0.6-0.2
				s0.4,0,0.6,0.4c1.9,4.4,1,9.3-2.2,12.5c-1.9,1.9-4.7,3.1-7.7,3.1c-1.3,0-2.5-0.2-3.7-0.6l-0.6-0.2l-0.4,0.4l-5.3,5.3l-0.8,0.8
				l0.9,0.7l13.5,10l0.7,0.7l4.3,4.3c1.7,1.7,2.5,3.9,2.2,6.2c-0.3,2.1-1.4,3.9-3.2,4.9c-1.6,0.9-2.8,1.3-4.2,1.3
				c-2.2,0-4.3-0.8-5.8-2.4l-4.7-4.7l-10.9-13l-0.7-0.8l-0.8,0.8l-4.7,4.7l-0.5,0.5l0.2,0.6c1.6,3.9,0.6,8.3-2.4,11.3l0,0l0,0
				c-1.7,2-4.6,3.2-7.5,3.2c-1.8,0-3.4-0.4-4.5-1l-0.1-0.1h-0.1c-0.2,0-0.3-0.1-0.3-0.3c0-0.2,0-0.4,0.2-0.7l4.4-4.4
				c0.5-0.5,0.7-1.2,0.7-1.9s-0.3-1.4-0.7-1.9c-0.5-0.5-1.2-0.7-1.9-0.7c-0.7,0-1.4,0.3-1.9,0.7l-4.4,4.4c-0.2,0.1-0.4,0.2-0.6,0.2
				s-0.4,0-0.6-0.4c-1.9-4.4-1-9.3,2.2-12.5c1.9-1.9,4.7-3.1,7.7-3.1c1.3,0,2.5,0.2,3.7,0.6l0.6,0.2l0.4-0.4l5.3-5.3l0.6-0.6
				l-0.5-0.7c-0.1-0.1-0.2-0.2-0.2-0.3c-0.5-0.7-0.6-0.9-10.8-11.6l-0.7-0.7l-0.7,0.7l-1.2,1.2c-0.2,0.2-0.3,0.2-0.5,0.2
				s-0.5-0.1-0.6-0.4l-5.3-9.2c-1.3-2-1-4.4,0.7-6.2c1-1,2.2-1.5,3.5-1.5c0.9,0,1.8,0.3,2.7,0.8l9.1,5.3c0.2,0.1,0.3,0.4,0.4,0.6
				c0,0.2-0.1,0.4-0.2,0.6l-1.2,1.2l-0.7,0.7l0.7,0.7c2.7,2.9,4.7,5,6.1,6.6c4.3,4.7,4.3,4.7,5,5.2c0.1,0.1,0.2,0.1,0.3,0.2l0.7,0.5
				l0.6-0.6l6.2-6.2l0.5-0.5l-0.2-0.6c-1.6-3.9-0.6-8.3,2.4-11.3C321.7,32.8,324.6,31.6,327.6,31.6 M289.5,46.9l0.9-0.9l0.9-0.9
				c0.1-0.1,0.3-0.2,0.5-0.2s0.4,0.1,0.4,0.1l4.2,4.5c6.2,6.8,7.2,7.8,7.3,8.2c0,0.1,0.1,0.3,0.2,0.6l0.6,1.4l1.1-1.1l2.7-2.7
				l0.8-0.8l-0.9-0.7l-0.2-0.2c-0.2-0.1-0.2-0.1-0.8-0.8c-1-1.1-3.7-4-11.3-11.9c-0.1-0.1-0.2-0.3-0.2-0.5s0.1-0.4,0.2-0.5l0.9-0.9
				l0.9-0.9l-1.1-0.7l-7.1-4.4l0,0l0,0c-0.7-0.3-1.4-0.5-2-0.5c-0.9,0-1.7,0.3-2.4,1c-1.1,1.1-1.3,2.7-0.5,4.4l0,0l0,0l4.4,7.1
				L289.5,46.9 M318.9,46.9c0.2,0.7,0.1,0.8-0.1,1l-20.4,20.4c-0.2,0.2-0.4,0.2-0.5,0.2s-0.3,0-0.4-0.1c-1.3-0.6-2.6-0.9-4-0.9
				c-2.6,0-5,1-6.8,2.9c-2,2-3,4.9-2.7,7.9l0.2,2.1l1.5-1.5l2.4-2.4l0,0l0,0c0.7-0.8,1.6-1.2,2.7-1.2s2.1,0.4,3,1.3l0,0l0,0
				c0.7,0.6,1.2,1.5,1.2,2.5c0,1.1-0.4,2.3-1.3,3.1l-2.4,2.4l-1.7,1.7h2.4h1.2c2.4,0,5-1,6.6-2.7c2.9-2.9,3.7-7.1,2-10.8
				c-0.2-0.7-0.1-0.8,0.1-1l20.4-20.4c0.2-0.2,0.4-0.2,0.5-0.2s0.3,0,0.4,0.1c1.3,0.6,2.6,0.9,4,0.9c2.6,0,5-1,6.8-2.9
				c2-2,3-4.9,2.7-7.9l-0.2-2.1l-1.5,1.5l-2.4,2.4l0,0l0,0c-0.7,0.8-1.6,1.2-2.7,1.2s-2.1-0.4-3-1.3c-0.8-0.8-1.2-1.7-1.2-2.8
				c0-0.9,0.5-2.2,1.2-2.8l2.4-2.4l1.4-1.4l-2-0.3c-0.3,0-0.7-0.1-1.1-0.1c-2.6,0-5.2,1-6.9,2.7C318.1,38.9,317.3,43.2,318.9,46.9
				 M311.2,64.7H311l-0.3,0.6c-0.3,0.6,0,0.9,0.6,1.7c0.4,0.6,1.3,1.6,2.8,3.5l0.7,0.9l0.8-0.8l5-5l0.8-0.8l-0.9-0.7l-4.1-3.3
				l-0.7-0.5l-0.6,0.6L311.2,64.7 M326.2,84.2c1.2,1.4,2.9,2.1,4.6,2.1c1.3,0,2.5-0.4,3.5-1.1c1.4-1.1,2.3-2.7,2.5-4.4
				c0.2-1.7-0.4-3.4-1.4-4.7l0,0l0,0l-4.7-4.7l-0.1-0.1h-0.1l-7.1-5l-0.7-0.5l-0.6,0.6l-5.6,5.6l-0.6,0.6l0.6,0.7l5.3,6.5l0,0l0,0
				L326.2,84.2 M327.6,30.6c-3.1,0-6.3,1.2-8.6,3.5c-3.3,3.3-4.4,8-2.7,12.4l-6.2,6.2c-1.2-0.9,0.3,0.6-11.2-11.8l1.2-1.2
				c0.9-0.9,0.6-2.1-0.3-2.7l-9.2-5.3c-1-0.6-2.1-0.9-3.2-0.9c-1.5,0-3,0.6-4.2,1.8c-2.1,2.1-2.4,5-0.9,7.4l5.3,9.2
				c0.3,0.5,0.9,0.8,1.5,0.8c0.4,0,0.8-0.2,1.2-0.5l1.2-1.2c11.8,12.4,10.1,10.6,10.9,11.8l-5.3,5.3c-1.3-0.5-2.7-0.7-4.1-0.7
				c-3,0-6.1,1.1-8.4,3.4c-3.5,3.5-4.4,8.9-2.4,13.6c0.3,0.7,0.9,1,1.5,1c0.4,0,0.8-0.1,1.2-0.4l4.4-4.4c0.3-0.3,0.7-0.4,1.2-0.4
				s0.9,0.1,1.2,0.4c0.6,0.6,0.6,1.8,0,2.4l-4.4,4.4c-0.9,0.9-0.6,2.4,0.6,2.7c1.5,0.9,3.3,1.2,5,1.2c3,0,6.2-1.2,8.3-3.5
				c3.3-3.3,4.4-8,2.7-12.4l4.7-4.7l10.9,13l0,0c0,0,0.2,0.2,4.7,4.7c1.8,1.8,4.1,2.7,6.5,2.7c1.8,0,3.3-0.6,4.7-1.5
				c4.4-2.7,5-8.9,1.2-12.7c-5-5-4.7-4.7-5-5L318,59.1l5.3-5.3c1.3,0.5,2.7,0.7,4.1,0.7c3,0,6.1-1.1,8.4-3.4
				c3.5-3.5,4.4-8.9,2.4-13.6c-0.3-0.7-0.9-1-1.5-1c-0.4,0-0.8,0.1-1.2,0.4l-4.4,4.4c-0.3,0.3-0.7,0.4-1.2,0.4
				c-0.4,0-0.9-0.1-1.2-0.4c-0.6-0.6-0.6-1.8,0-2.4l4.4-4.4c0.9-0.9,0.6-2.4-0.6-2.7C331,31,329.3,30.6,327.6,30.6L327.6,30.6z
				 M289.7,45.3l-4.4-7.1c-0.6-1.2-0.6-2.4,0.3-3.3c0.5-0.5,1.1-0.7,1.7-0.7c0.5,0,1,0.1,1.6,0.4L296,39l-0.9,0.9
				c-0.6,0.6-0.6,1.8,0,2.4c13.6,14.2,11.2,12.1,12.4,13l-2.7,2.7c-0.6-1.5,1.5,0.9-11.8-13.6c-0.3-0.3-0.7-0.4-1.2-0.4
				s-0.9,0.1-1.2,0.4L289.7,45.3L289.7,45.3z M298,69.5c0.4,0,0.9-0.1,1.2-0.5l20.4-20.4c0.6-0.6,0.6-1.2,0.3-2.1
				c-1.5-3.3-0.9-7.1,1.8-9.8c1.5-1.5,4-2.4,6.2-2.4c0.3,0,0.6,0,0.9,0.1l-2.4,2.4c-0.9,0.9-1.5,2.4-1.5,3.5c0,1.5,0.6,2.7,1.5,3.5
				c1,1,2.4,1.6,3.7,1.6c1.3,0,2.6-0.5,3.4-1.6l2.4-2.4c0.3,2.7-0.6,5.3-2.4,7.1c-1.7,1.7-3.9,2.6-6.1,2.6c-1.2,0-2.5-0.3-3.6-0.8
				c-0.2-0.1-0.5-0.2-0.8-0.2c-0.4,0-0.9,0.1-1.2,0.5L301.4,71c-0.6,0.6-0.6,1.2-0.3,2.1c1.5,3.3,0.9,7.1-1.8,9.8
				c-1.5,1.5-3.8,2.4-5.9,2.4c-0.3,0-0.9,0-1.2,0l2.4-2.4c2.1-2.1,2.1-5.3,0-7.1c-1-1-2.4-1.6-3.7-1.6s-2.6,0.5-3.4,1.6l-2.4,2.4
				c-0.3-2.7,0.6-5.3,2.4-7.1c1.7-1.7,3.9-2.6,6.1-2.6c1.2,0,2.5,0.3,3.6,0.8C297.4,69.4,297.6,69.5,298,69.5L298,69.5z M311.6,65.7
				l4.1-4.1l4.1,3.3l-5,5C311.7,66,311.6,65.7,311.6,65.7L311.6,65.7L311.6,65.7z M330.9,85.3c-1.4,0-2.9-0.6-3.9-1.8l-4.4-4.4
				l-5.3-6.5l5.6-5.6l7.1,5l4.7,4.7c1.8,2.1,1.8,5.6-0.9,7.7C332.9,85,331.9,85.3,330.9,85.3L330.9,85.3z"/>
		</g>
	</g>
</g>
<rect x="118.1" y="58.2" transform="matrix(0.7071 -0.7071 0.7071 0.7071 -7.5076 102.7602)" class="st7" width="4.4" height="4.4"/>
<line class="st14" x1="0" y1="123.6" x2="110.7" y2="123.6"/>
<line class="st14" x1="127.5" y1="123.6" x2="238.1" y2="123.6"/>
<line class="st14" x1="254.9" y1="123.6" x2="365.6" y2="123.6"/>
<line class="st14" x1="382.4" y1="123.6" x2="493.1" y2="123.6"/>
<line class="st14" x1="509.9" y1="123.6" x2="620.5" y2="123.6"/>
<line class="st14" x1="637.3" y1="123.6" x2="748" y2="123.6"/>
<rect x="244.7" y="58.2" transform="matrix(0.7071 -0.7071 0.7071 0.7071 29.5889 192.2791)" class="st7" width="4.4" height="4.4"/>
<rect x="371.8" y="58.2" transform="matrix(0.7071 -0.7071 0.7071 0.7071 66.8355 282.1077)" class="st7" width="4.4" height="4.4"/>
<rect x="498.6" y="58.2" transform="matrix(0.7071 -0.7071 0.7071 0.7071 103.9774 371.8387)" class="st7" width="4.4" height="4.4"/>
<rect x="625.4" y="58.2" transform="matrix(0.7071 -0.7071 0.7071 0.7071 141.1294 461.4283)" class="st7" width="4.4" height="4.4"/>
<g>
	<path class="st4" d="M194,87.1c-3.4,1.3-7,2.1-10.9,2.1c-16.2,0-29.3-13.1-29.3-29.3c0-6.1,1.8-11.7,5-16.3"/>
	<path class="st4" d="M172,32.8c3.4-1.4,7.2-2.2,11.1-2.2c16.2,0,29.3,13.1,29.3,29.3c0,6.1-1.9,11.7-5,16.4"/>
	<polyline class="st4" points="152.2,45.2 159.9,42.5 160.9,49.8 	"/>
	<polyline class="st4" points="214.5,74 207,77.7 205,70.4 	"/>
</g>
</svg>
