<?xml version="1.0" encoding="utf-8"?>
<!-- Generator: Adobe Illustrator 19.1.1, SVG Export Plug-In . SVG Version: 6.00 Build 0)  -->
<svg version="1.1" id="Layer_1" xmlns:sketch="http://www.bohemiancoding.com/sketch/ns"
	 xmlns="http://www.w3.org/2000/svg" xmlns:xlink="http://www.w3.org/1999/xlink" x="0px" y="0px" viewBox="-331 239 84 84"
	 style="enable-background:new -331 239 84 84;" xml:space="preserve">
<style type="text/css">
	.st0{fill:#EEEEEE;stroke:#FFFFFF;stroke-width:4;}
	.st1{fill:none;stroke:#F2EDED;}
	.st2{fill:#005EB8;}
</style>
<g id="Rectangle-290">
	<g sketch:type="MSShapeGroup">
		<path id="path-1" class="st0" d="M-290,240h2c22.1,0,40,17.9,40,40v2c0,22.1-17.9,40-40,40h-2c-22.1,0-40-17.9-40-40v-2
			C-330,257.9-312.1,240-290,240z"/>
	</g>
	<g>
		<path id="path-1_1_" class="st1" d="M-290,240h2c22.1,0,40,17.9,40,40v2c0,22.1-17.9,40-40,40h-2c-22.1,0-40-17.9-40-40v-2
			C-330,257.9-312.1,240-290,240z"/>
	</g>
</g>
<g>
	<path class="st2" d="M-292.6,282.2h7.3v2.4h-7.3V282.2z"/>
	<g>
		<path class="st2" d="M-271.3,285.6v10c0,0.3-0.3,0.6-0.6,0.6H-306c-0.3,0-0.6-0.3-0.6-0.6v-10c1.2,1.3,2.9,2.1,4.8,2.1h4.2
			c0.7,1.4,2.1,2.4,3.8,2.4h9.7c1.7,0,3.1-1,3.8-2.4h4.2C-274.3,287.6-272.6,286.9-271.3,285.6 M-309.7,269.1v26.4
			c0,2,1.6,3.6,3.6,3.6h34.1c2,0,3.6-1.6,3.6-3.6v-26.4l-4.4,13.1c-0.5,1.5-1.9,2.5-3.4,2.5h-6.8v1.2c0,0.7-0.5,1.2-1.2,1.2h-9.7
			c-0.7,0-1.2-0.5-1.2-1.2v-1.2h-6.8c-1.6,0-3-1-3.4-2.5L-309.7,269.1L-309.7,269.1z"/>
	</g>
	<path class="st2" d="M-284.2,262.8h-9.7c-2,0-3.6,1.6-3.6,3.6v1.2h-10.1l4.6,13.7c0.2,0.5,0.6,0.8,1.1,0.8h6.8V281
		c0-0.7,0.5-1.2,1.2-1.2h9.7c0.7,0,1.2,0.5,1.2,1.2v1.2h6.8c0.5,0,1-0.3,1.1-0.8l4.6-13.7h-10.1v-1.2
		C-280.5,264.5-282.2,262.8-284.2,262.8z M-295.1,267.7v-1.2c0-0.7,0.5-1.2,1.2-1.2h9.7c0.7,0,1.2,0.5,1.2,1.2v1.2H-295.1z"/>
</g>
</svg>
