<?xml version="1.0" encoding="utf-8"?>
<!-- Generator: Adobe Illustrator 19.1.1, SVG Export Plug-In . SVG Version: 6.00 Build 0)  -->
<svg version="1.1" id="Layer_1" xmlns:sketch="http://www.bohemiancoding.com/sketch/ns"
	 xmlns="http://www.w3.org/2000/svg" xmlns:xlink="http://www.w3.org/1999/xlink" x="0px" y="0px" viewBox="-331 239 84 84"
	 style="enable-background:new -331 239 84 84;" xml:space="preserve">
<style type="text/css">
	.st0{fill:#EEEEEE;stroke:#FFFFFF;stroke-width:4;}
	.st1{fill:none;stroke:#F2EDED;}
	.st2{fill:#005EB8;stroke:#005EB8;stroke-width:2;stroke-miterlimit:10;}
	.st3{fill:#005EB8;stroke:#005EB8;stroke-width:0.5;stroke-miterlimit:10;}
</style>
<g id="Rectangle-290">
	<g sketch:type="MSShapeGroup">
		<path id="path-1" class="st0" d="M-290,240h2c22.1,0,40,17.9,40,40v2c0,22.1-17.9,40-40,40h-2c-22.1,0-40-17.9-40-40v-2
			C-330,257.9-312.1,240-290,240z"/>
	</g>
	<g>
		<path id="path-1_1_" class="st1" d="M-290,240h2c22.1,0,40,17.9,40,40v2c0,22.1-17.9,40-40,40h-2c-22.1,0-40-17.9-40-40v-2
			C-330,257.9-312.1,240-290,240z"/>
	</g>
</g>
<g>
	<g>
		<g>
			<path class="st2" d="M-274.2,266.7c-0.4,0-0.7,0-1,0c-0.1,0-11.3-0.8-15.9,14c-3.9,13-13.1,12.4-13.5,12.3c-0.2,0-0.4,0-0.5,0
				c-6.4-0.3-11.5-5.6-11.5-12.1c0-6.7,5.4-12.1,12.1-12.1c4.1,0,7.9,2.1,10.1,5.6l1.9-1.3c-2.6-4.1-7.2-6.6-12.1-6.6
				c-7.9,0-14.3,6.4-14.3,14.3c0,7.7,6,14,13.7,14.3c0.2,0,0.5,0,0.5,0s0.2,0,0.4,0c2,0,11.4-0.7,15.5-14
				c3.9-13,13.1-12.4,13.5-12.3c0.3,0,0.6,0,0.9,0c6.2,0.5,11.1,5.8,11.1,12c0,6.7-5.4,12.1-12.1,12.1c-4.1,0-7.9-2.1-10.1-5.6
				l-1.9,1.3c2.6,4.1,7.1,6.6,12.1,6.6c7.9,0,14.3-6.4,14.3-14.3C-261,273.6-266.8,267.4-274.2,266.7z"/>
		</g>
	</g>
	<g>
		<path class="st3" d="M-307.4,281c0,1-0.3,1.8-0.8,2.3c-0.5,0.5-1.4,0.7-2.4,0.7h-1.7V278h1.8c0.9,0,1.7,0.3,2.2,0.7
			C-307.6,279.2-307.4,280.1-307.4,281z M-308.1,281.1c0-0.7-0.2-1.4-0.6-1.8c-0.4-0.4-1-0.6-1.8-0.6h-1v4.8h0.8
			c0.8,0,1.5-0.2,1.8-0.6C-308.3,282.5-308.1,281.9-308.1,281.1z"/>
		<path class="st3" d="M-302.6,284.1h-3.4V278h3.4v0.6h-2.7v1.9h2.5v0.6h-2.5v2.2h2.7V284.1z"/>
		<path class="st3" d="M-297.2,278.1h0.7l-2.2,6.1h-0.6l-2.2-6.1h0.7l1.4,3.9c0.2,0.5,0.3,0.9,0.5,1.4c0.1-0.5,0.3-0.9,0.5-1.4
			L-297.2,278.1z"/>
	</g>
	<g>
		<path class="st3" d="M-277.2,281.1c0,0.9-0.3,1.6-0.7,2.3c-0.5,0.5-1.2,0.8-2,0.8c-0.9,0-1.6-0.3-2-0.8c-0.5-0.5-0.7-1.4-0.7-2.3
			c0-1,0.3-1.7,0.7-2.3c0.5-0.5,1.2-0.8,2.1-0.8c0.8,0,1.5,0.3,2,0.8C-277.5,279.4-277.2,280.1-277.2,281.1z M-281.9,281.1
			c0,0.8,0.2,1.5,0.5,1.8c0.3,0.4,0.8,0.6,1.5,0.6c0.6,0,1.2-0.3,1.5-0.6c0.3-0.4,0.5-1,0.5-1.8s-0.2-1.5-0.5-1.8
			c-0.4-0.5-0.8-0.5-1.5-0.5c-0.6,0-1.2,0.3-1.5,0.6C-281.9,279.7-281.9,280.3-281.9,281.1z"/>
		<path class="st3" d="M-272.2,279.9c0,0.5-0.2,1.1-0.5,1.5c-0.5,0.4-1,0.5-1.7,0.5h-0.6v2.4h-0.6v-6h1.6
			C-272.9,278.2-272.2,278.7-272.2,279.9z M-275.2,281.1h0.6c0.5,0,1.1-0.1,1.4-0.4c0.3-0.2,0.5-0.5,0.5-0.9c0-0.5-0.2-0.6-0.5-0.9
			s-0.6-0.3-1.3-0.3h-0.7V281.1z"/>
		<path class="st3" d="M-267.5,282.5c0,0.5-0.2,0.9-0.5,1.3c-0.5,0.4-0.9,0.5-1.6,0.5s-1.3-0.1-1.6-0.3v-0.6
			c0.3,0.1,0.5,0.2,0.8,0.3c0.3,0.1,0.5,0.1,0.8,0.1c0.5,0,0.8-0.1,1.1-0.3c0.3-0.2,0.4-0.5,0.4-0.7c0-0.2,0-0.5-0.1-0.5
			c-0.1-0.2-0.3-0.3-0.5-0.4c-0.2-0.1-0.5-0.3-0.9-0.5c-0.5-0.2-0.9-0.5-1.2-0.6c-0.3-0.3-0.4-0.6-0.4-1.1s0.2-0.8,0.5-1.1
			c0.4-0.3,0.8-0.5,1.4-0.5c0.5,0,1.2,0.1,1.6,0.4l-0.3,0.5c-0.5-0.2-1-0.4-1.5-0.4c-0.4,0-0.6,0.1-0.8,0.3
			c-0.2,0.2-0.4,0.5-0.4,0.6c0,0.2,0,0.5,0.1,0.5c0.1,0.2,0.2,0.3,0.5,0.4c0.2,0.1,0.5,0.3,0.8,0.4c0.6,0.3,1.1,0.5,1.4,0.7
			C-267.6,281.8-267.5,282.1-267.5,282.5z"/>
	</g>
</g>
</svg>
