<?xml version="1.0" encoding="utf-8"?>
<!-- Generator: Adobe Illustrator 19.1.1, SVG Export Plug-In . SVG Version: 6.00 Build 0)  -->
<svg version="1.1" id="Layer_1" xmlns:sketch="http://www.bohemiancoding.com/sketch/ns"
	 xmlns="http://www.w3.org/2000/svg" xmlns:xlink="http://www.w3.org/1999/xlink" x="0px" y="0px" viewBox="-331 239 84 84"
	 style="enable-background:new -331 239 84 84;" xml:space="preserve">
<style type="text/css">
	.st0{fill:#EEEEEE;}
	.st1{fill:#FFFFFF;}
	.st2{fill:none;stroke:#F2EDED;}
	.st3{fill:none;stroke:#005EB8;stroke-width:3;stroke-miterlimit:10;}
	.st4{fill:#005EB8;}
	.st5{fill:none;stroke:#005EB8;stroke-width:2;stroke-miterlimit:10;}
</style>
<g sketch:type="MSShapeGroup">
	<g id="path-1">
		<path class="st0" d="M-290,320.8c-21.4,0-38.8-17.4-38.8-38.8v-2c0-21.4,17.4-38.8,38.8-38.8h2c21.4,0,38.8,17.4,38.8,38.8v2
			c0,21.4-17.4,38.8-38.8,38.8H-290z"/>
		<path class="st1" d="M-288,242.3c20.8,0,37.8,16.9,37.8,37.8v2c0,20.8-16.9,37.8-37.8,37.8h-2c-20.8,0-37.8-16.9-37.8-37.8v-2
			c0-20.8,16.9-37.8,37.8-37.8H-288 M-288,240.3h-2c-22,0-39.8,17.8-39.8,39.8v2c0,22,17.8,39.8,39.8,39.8h2
			c22,0,39.8-17.8,39.8-39.8v-2C-248.2,258-266,240.3-288,240.3L-288,240.3z"/>
	</g>
</g>
<g>
	<path id="path-1_1_" class="st2" d="M-290,240.3h2c22,0,39.8,17.8,39.8,39.8v2c0,22-17.8,39.8-39.8,39.8h-2
		c-22,0-39.8-17.8-39.8-39.8v-2C-329.7,258-311.9,240.3-290,240.3z"/>
</g>
<g>
	<g>
		<path class="st3" d="M-292.1,281.4c0-2.7,1.2-5.1,3.1-6.8c-1.6-1.3-3.6-2.2-5.8-2.2c-4.9,0-8.9,4-8.9,8.9c0,4.9,4,8.9,8.9,8.9
			c2.2,0,4.3-0.8,5.8-2.2C-290.9,286.5-292.1,284.1-292.1,281.4z"/>
		<path class="st3" d="M-283.2,272.4c-2.2,0-4.3,0.8-5.8,2.2c1.9,1.6,3.1,4.1,3.1,6.8c0,2.7-1.2,5.1-3.1,6.8
			c1.6,1.3,3.6,2.2,5.8,2.2c4.9,0,8.9-4,8.9-8.9C-274.2,276.4-278.2,272.4-283.2,272.4z"/>
		<path class="st4" d="M-285.6,281.4c0-2.9-1.3-5.6-3.4-7.3c-2.1,1.8-3.4,4.4-3.4,7.3c0,2.9,1.3,5.6,3.4,7.3
			C-286.9,286.9-285.6,284.3-285.6,281.4z"/>
	</g>
</g>
<g>
	<g>
		<g>
			<path class="st5" d="M-295,258.2c-10.2,2.7-17.6,12-17.6,23c0,3.8,0.9,7.3,2.5,10.5"/>
			<g>
				<polygon class="st4" points="-296.9,254.3 -288.9,257.4 -295.6,262.8 				"/>
			</g>
		</g>
	</g>
	<g>
		<g>
			<path class="st5" d="M-265.9,287.4c0.5-2,0.8-4.1,0.8-6.2c0-12.7-10-23.1-22.6-23.7"/>
			<g>
				<polygon class="st4" points="-261.6,287.7 -268.3,293.1 -269.6,284.6 				"/>
			</g>
		</g>
	</g>
	<g>
		<g>
			<path class="st5" d="M-305.7,297.9c4.3,4.3,10.3,7,16.8,7c8.3,0,15.6-4.3,19.9-10.7"/>
			<g>
				<polygon class="st4" points="-308.1,301.5 -309.5,293 -301.5,296.1 				"/>
			</g>
		</g>
	</g>
</g>
</svg>
