<?xml version="1.0" encoding="utf-8"?>
<!-- Generator: Adobe Illustrator 19.1.1, SVG Export Plug-In . SVG Version: 6.00 Build 0)  -->
<svg version="1.1" id="Layer_1" xmlns:sketch="http://www.bohemiancoding.com/sketch/ns"
	 xmlns="http://www.w3.org/2000/svg" xmlns:xlink="http://www.w3.org/1999/xlink" x="0px" y="0px" viewBox="-331 239 84 84"
	 style="enable-background:new -331 239 84 84;" xml:space="preserve">
<style type="text/css">
	.st0{fill:#EEEEEE;}
	.st1{fill:#FFFFFF;}
	.st2{fill:none;stroke:#F2EDED;}
	.st3{fill:none;stroke:#005EB8;stroke-width:3;stroke-miterlimit:10;}
	.st4{fill:#005EB8;}
	.st5{fill:#EEEEEE;stroke:#005EB8;stroke-width:3;stroke-miterlimit:10;}
</style>
<g sketch:type="MSShapeGroup">
	<g id="path-1">
		<path class="st0" d="M-290,320.7c-21.4,0-38.8-17.4-38.8-38.8v-2c0-21.4,17.4-38.8,38.8-38.8h2c21.4,0,38.8,17.4,38.8,38.8v2
			c0,21.4-17.4,38.8-38.8,38.8H-290z"/>
		<path class="st1" d="M-288,242.2c20.8,0,37.8,16.9,37.8,37.8v2c0,20.8-16.9,37.8-37.8,37.8h-2c-20.8,0-37.8-16.9-37.8-37.8v-2
			c0-20.8,16.9-37.8,37.8-37.8H-288 M-288,240.2h-2c-22,0-39.8,17.8-39.8,39.8v2c0,22,17.8,39.8,39.8,39.8h2
			c22,0,39.8-17.8,39.8-39.8v-2C-248.2,257.9-266,240.2-288,240.2L-288,240.2z"/>
	</g>
</g>
<g>
	<path id="path-1_1_" class="st2" d="M-290,240.2h2c22,0,39.8,17.8,39.8,39.8v2c0,22-17.8,39.8-39.8,39.8h-2
		c-22,0-39.8-17.8-39.8-39.8v-2C-329.7,257.9-311.9,240.2-290,240.2z"/>
</g>
<g>
	<g>
		<path class="st3" d="M-301.5,271.9c0-3.3,1.5-6.2,3.8-8.2c-1.9-1.6-4.3-2.6-7-2.6c-6,0-10.8,4.8-10.8,10.8s4.8,10.8,10.8,10.8
			c2.7,0,5.1-1,7-2.6C-300.1,278.1-301.5,275.2-301.5,271.9z"/>
		<path class="st3" d="M-290.8,261.1c-2.7,0-5.1,1-7,2.6c2.3,2,3.8,4.9,3.8,8.2c0,3.3-1.5,6.2-3.8,8.2c1.9,1.6,4.3,2.6,7,2.6
			c6,0,10.8-4.8,10.8-10.8S-284.8,261.1-290.8,261.1z"/>
		<path class="st4" d="M-293.7,271.9c0-3.5-1.6-6.7-4.1-8.9c-2.5,2.1-4.1,5.3-4.1,8.9c0,3.5,1.6,6.7,4.1,8.9
			C-295.3,278.6-293.7,275.5-293.7,271.9z"/>
	</g>
	<g>
		<circle class="st5" cx="-282.3" cy="285.3" r="9.3"/>
		<line class="st3" x1="-275.1" y1="292.4" x2="-271.9" y2="295.6"/>
		<path class="st4" d="M-264.6,302.1l-0.8,0.8c-0.9,0.9-2.5,0.9-3.4,0l-4.6-4.6c-0.9-0.9-0.9-2.5,0-3.4l0.8-0.8
			c0.9-0.9,2.5-0.9,3.4,0l4.6,4.6C-263.7,299.6-263.7,301.2-264.6,302.1z"/>
	</g>
</g>
<path class="st4" d="M-282.2,290.6h-0.2c-0.6,0-1-0.5-1-1l0,0c0-0.6,0.5-1,1-1h0.2c0.6,0,1,0.5,1,1l0,0
	C-281.2,290.1-281.7,290.6-282.2,290.6z"/>
<polygon class="st4" points="-283.6,279.5 -281,279.5 -281.3,287 -283.3,287 "/>
</svg>
