<?xml version="1.0" encoding="utf-8"?>
<!-- Generator: Adobe Illustrator 19.1.1, SVG Export Plug-In . SVG Version: 6.00 Build 0)  -->
<svg version="1.1" id="Layer_1" xmlns:sketch="http://www.bohemiancoding.com/sketch/ns"
	 xmlns="http://www.w3.org/2000/svg" xmlns:xlink="http://www.w3.org/1999/xlink" x="0px" y="0px" viewBox="-331 239 84 84"
	 style="enable-background:new -331 239 84 84;" xml:space="preserve">
<style type="text/css">
	.st0{fill:#EEEEEE;}
	.st1{fill:#FFFFFF;}
	.st2{fill:none;stroke:#F2EDED;}
	.st3{fill:#005EB8;}
	.st4{fill:none;stroke:#005EB8;stroke-width:2;stroke-linecap:round;stroke-linejoin:round;stroke-miterlimit:10;}
</style>
<g sketch:type="MSShapeGroup">
	<g id="path-1">
		<path class="st0" d="M-290,320.8c-21.4,0-38.8-17.4-38.8-38.8v-2c0-21.4,17.3-38.7,38.7-38.7h2c21.4,0,38.8,17.4,38.8,38.8v2
			c0,21.4-17.4,38.8-38.8,38.8L-290,320.8L-290,320.8z"/>
		<path class="st1" d="M-288,242.3c20.8,0,37.8,16.9,37.8,37.8v2c0,20.8-16.9,37.8-37.8,37.8h-2c-20.8-0.1-37.8-17.1-37.8-37.9v-2
			c0-20.8,16.9-37.7,37.7-37.7H-288 M-288,240.3h-2c-21.9,0-39.8,17.7-39.8,39.7v2c0,22,17.8,39.8,39.8,39.8h2
			c21.9,0,39.7-17.8,39.7-39.8v-2C-248.2,258-266,240.3-288,240.3L-288,240.3z"/>
	</g>
</g>
<g>
	<path id="path-1_1_" class="st2" d="M-290,240.3h2c22,0,39.8,17.7,39.8,39.7v2c0,22-17.8,39.8-39.8,39.8h-2
		c-21.9,0-39.8-17.8-39.8-39.8v-2C-329.8,258-311.9,240.3-290,240.3z"/>
</g>
<g>
	<g>
		<path class="st3" d="M-270,264.6c-0.7-0.7-1.4-1-2.4-1h-33.3c-0.9,0-1.7,0.3-2.4,1c-0.7,0.7-1,1.4-1,2.4v22.7c0,0.9,0.3,1.7,1,2.4
			c0.7,0.7,1.4,1,2.4,1h11.3c0,0.5-0.1,1.1-0.3,1.6c-0.2,0.6-0.4,1-0.7,1.5c-0.2,0.4-0.3,0.7-0.3,0.9c0,0.4,0.1,0.7,0.4,0.9
			c0.3,0.3,0.6,0.4,0.9,0.4h10.7c0.4,0,0.7-0.1,0.9-0.4c0.3-0.3,0.4-0.6,0.4-0.9c0-0.2-0.1-0.5-0.3-0.9c-0.2-0.4-0.4-0.9-0.7-1.5
			c-0.2-0.6-0.3-1.1-0.3-1.6h11.3c0.9,0,1.7-0.3,2.4-1c0.7-0.7,1-1.4,1-2.4V267C-269,266.1-269.3,265.3-270,264.6z M-271.7,286.8
			c0,0.2-0.1,0.3-0.2,0.5c-0.1,0.1-0.3,0.2-0.5,0.2h-33.3c-0.2,0-0.3-0.1-0.5-0.2c-0.1-0.1-0.2-0.3-0.2-0.5V267
			c0-0.2,0.1-0.3,0.2-0.5c0.1-0.1,0.3-0.2,0.5-0.2h33.3c0.2,0,0.3,0.1,0.5,0.2c0.1,0.1,0.2,0.3,0.2,0.5v17.3V286.8z"/>
	</g>
	<polyline class="st4" points="-303.7,278.5 -297,278.5 -294.5,270.9 -290.9,283.1 -286.8,273.2 -284.2,278.6 -274.3,278.6 	"/>
</g>
</svg>
