<?xml version="1.0" encoding="utf-8"?>
<!-- Generator: Adobe Illustrator 19.1.1, SVG Export Plug-In . SVG Version: 6.00 Build 0)  -->
<svg version="1.1" id="Layer_1" xmlns:sketch="http://www.bohemiancoding.com/sketch/ns"
	 xmlns="http://www.w3.org/2000/svg" xmlns:xlink="http://www.w3.org/1999/xlink" x="0px" y="0px" viewBox="-331 239 84 84"
	 style="enable-background:new -331 239 84 84;" xml:space="preserve">
<style type="text/css">
	.st0{fill:#EEEEEE;}
	.st1{fill:#FFFFFF;}
	.st2{fill:none;stroke:#F2EDED;}
	.st3{fill:none;stroke:#005EB8;stroke-width:2;stroke-miterlimit:10;}
	.st4{fill:#005EB8;stroke:#EEEEEE;stroke-miterlimit:10;}
</style>
<g sketch:type="MSShapeGroup">
	<g id="path-1">
		<path class="st0" d="M-290,320.8c-21.4,0-38.8-17.4-38.8-38.8v-2c0-21.4,17.4-38.8,38.8-38.8h2c21.4,0,38.8,17.4,38.8,38.8v2
			c0,21.4-17.4,38.8-38.8,38.8H-290z"/>
		<path class="st1" d="M-288,242.3c20.8,0,37.8,16.9,37.8,37.8v2c0,20.8-16.9,37.8-37.8,37.8h-2c-20.8,0-37.8-16.9-37.8-37.8v-2
			c0-20.8,16.9-37.8,37.8-37.8H-288 M-288,240.3h-2c-22,0-39.8,17.8-39.8,39.8v2c0,22,17.8,39.8,39.8,39.8h2
			c22,0,39.8-17.8,39.8-39.8v-2C-248.2,258-266,240.3-288,240.3L-288,240.3z"/>
	</g>
</g>
<g>
	<path id="path-1_1_" class="st2" d="M-290,240.3h2c22,0,39.8,17.8,39.8,39.8v2c0,22-17.8,39.8-39.8,39.8h-2
		c-22,0-39.8-17.8-39.8-39.8v-2C-329.7,258-311.9,240.3-290,240.3z"/>
</g>
<g>
	<g>
		<polyline class="st3" points="-307.8,267.1 -286.9,267.1 -286.9,278.8 -298.7,278.8 -298.7,290.3 -275.3,290.3 		"/>
		<circle class="st4" cx="-310.2" cy="267.1" r="3.9"/>
		<circle class="st4" cx="-298.7" cy="267.1" r="3.9"/>
		<circle class="st4" cx="-286.9" cy="267.1" r="3.9"/>
		<circle class="st4" cx="-286.9" cy="278.8" r="3.9"/>
		<circle class="st4" cx="-298.7" cy="278.7" r="3.9"/>
		<circle class="st4" cx="-298.7" cy="290.3" r="3.9"/>
		<circle class="st4" cx="-286.9" cy="290.3" r="3.9"/>
		<circle class="st4" cx="-269.6" cy="290.3" r="9.6"/>
	</g>
	<polyline class="st4" points="-274.8,291.8 -271.6,294.4 -264.9,286.5 	"/>
</g>
</svg>
