<?xml version="1.0" encoding="utf-8"?>
<!-- Generator: Adobe Illustrator 19.1.1, SVG Export Plug-In . SVG Version: 6.00 Build 0)  -->
<svg version="1.1" id="Layer_1" xmlns:sketch="http://www.bohemiancoding.com/sketch/ns"
	 xmlns="http://www.w3.org/2000/svg" xmlns:xlink="http://www.w3.org/1999/xlink" x="0px" y="0px" viewBox="-331 239 84 84"
	 style="enable-background:new -331 239 84 84;" xml:space="preserve">
<style type="text/css">
	.st0{fill:#EEEEEE;stroke:#FFFFFF;stroke-width:4;}
	.st1{fill:none;stroke:#F2EDED;}
	.st2{fill:#005EB8;stroke:#005EB8;stroke-miterlimit:10;}
	.st3{fill:#005EB8;}
</style>
<g id="Rectangle-290">
	<g sketch:type="MSShapeGroup">
		<path id="path-1" class="st0" d="M-290,240h2c22.1,0,40,17.9,40,40v2c0,22.1-17.9,40-40,40h-2c-22.1,0-40-17.9-40-40v-2
			C-330,257.9-312.1,240-290,240z"/>
	</g>
	<g>
		<path id="path-1_1_" class="st1" d="M-290,240h2c22.1,0,40,17.9,40,40v2c0,22.1-17.9,40-40,40h-2c-22.1,0-40-17.9-40-40v-2
			C-330,257.9-312.1,240-290,240z"/>
	</g>
</g>
<g>
	<g>
		<g>
			<path class="st2" d="M-270.2,297.7l-6.8-11.8c2.7-2.9,4.3-6.7,4.3-11c0-4.5-1.8-8.5-4.8-11.5c-2.9-2.9-7-4.8-11.5-4.8
				s-8.5,1.8-11.5,4.8c-2.9,2.9-4.8,7-4.8,11.5c0,4.2,1.6,8.1,4.3,11l-6.8,11.8c-0.1,0.2-0.2,0.5-0.1,0.7c0.2,0.4,0.6,0.6,1,0.5
				l5.4-2.2l0.8,5.8c0,0.2,0.2,0.5,0.4,0.6c0.4,0.2,0.9,0.1,1.1-0.3l6.9-11.9c1,0.2,2.1,0.3,3.1,0.3c1.1,0,2.1-0.1,3.1-0.3l6.9,11.9
				c0.2,0.4,0.7,0.5,1.1,0.3c0.2-0.1,0.3-0.3,0.4-0.6l0.8-5.8l5.4,2.2c0.4,0.2,0.9,0,1-0.5C-270.1,298.2-270.1,297.9-270.2,297.7z
				 M-299.2,300l-0.7-4.5c-0.1-0.4-0.5-0.7-0.9-0.7c-0.1,0-0.2,0-0.2,0.1l-4.2,1.7l5.5-9.5c1.7,1.5,3.8,2.7,6,3.4L-299.2,300z
				 M-289,289.6c-4,0-7.7-1.6-10.3-4.3c-2.6-2.6-4.3-6.3-4.3-10.3s1.6-7.7,4.3-10.3c2.6-2.7,6.3-4.3,10.3-4.3s7.7,1.6,10.3,4.3
				c2.6,2.6,4.3,6.3,4.3,10.3s-1.6,7.7-4.3,10.3C-281.3,287.9-285,289.6-289,289.6z M-277,294.9c-0.1,0-0.2-0.1-0.2-0.1
				c-0.4-0.1-0.8,0.2-0.9,0.7l-0.7,4.5l-5.5-9.6c2.3-0.7,4.3-1.9,6-3.4l5.5,9.5L-277,294.9z"/>
		</g>
	</g>
	<g>
		<g>
			<path class="st3" d="M-282.2,272.4c-0.2-0.2-0.4-0.4-0.6-0.5s-0.5-0.2-0.8-0.1h-2.9l-0.9-2.8c-0.1-0.4-0.4-0.8-0.8-1
				c-0.2-0.1-0.5-0.2-0.8-0.2s-0.5,0.1-0.8,0.2c-0.4,0.2-0.7,0.5-0.8,1l-0.9,2.8h-2.9c-0.3,0-0.6,0-0.8,0.1s-0.5,0.3-0.6,0.5
				c-0.3,0.4-0.3,0.8-0.3,1.2c0.1,0.4,0.3,0.8,0.7,1.1l2.4,1.7l-0.9,2.8v0.1c-0.1,0.2-0.1,0.5,0,0.7c0,0.2,0.1,0.5,0.3,0.7
				c0.3,0.4,0.7,0.6,1.1,0.7s0.9,0,1.2-0.3l2.4-1.8l2.4,1.8c0.4,0.3,0.8,0.3,1.2,0.3c0.4-0.1,0.8-0.3,1.1-0.7
				c0.2-0.2,0.2-0.5,0.3-0.7c0-0.2,0-0.4,0-0.7v-0.1l-0.9-2.8l2.4-1.7c0.4-0.3,0.6-0.7,0.7-1.1
				C-281.8,273.2-281.9,272.8-282.2,272.4z M-283.4,273.5L-283.4,273.5l-2.8,2.1c-0.2,0.2-0.4,0.5-0.3,0.8l1.1,3.3l0,0v0.1v0.1
				l-0.1,0.1h-0.1l-2.8-2.1c-0.1-0.1-0.3-0.1-0.4-0.1s-0.3,0-0.5,0.1l-2.8,2.1h-0.1c0,0-0.1,0-0.1-0.1v-0.1v-0.1l0,0l1.1-3.3
				c0.1-0.3,0-0.6-0.3-0.8l-2.7-2l0,0l-0.1-0.1v-0.1l0,0c0,0,0,0,0.1,0s0.1,0,0.1,0h0.1h3.4c0.3,0,0.6-0.2,0.7-0.5l1.1-3.3
				c0,0,0-0.1,0.1-0.1h0.1h0.1l0.1,0.1l1.1,3.3c0.1,0.3,0.4,0.5,0.7,0.5h3.4h0.1h0.1c0,0,0,0,0.1,0l0,0v0.1
				C-283.3,273.4-283.4,273.4-283.4,273.5z"/>
		</g>
	</g>
	<g>
		<g>
			<path class="st2" d="M-280.7,266.7c-2.1-2.1-5-3.4-8.3-3.4c-3.2,0-6.2,1.3-8.3,3.4c-2.1,2.1-3.4,5-3.4,8.3s1.3,6.2,3.4,8.3
				c2.1,2.1,5,3.4,8.3,3.4s6.2-1.3,8.3-3.4c2.1-2.1,3.4-5,3.4-8.3S-278.6,268.8-280.7,266.7z M-281.7,282.2c-1.9,1.9-4.4,3-7.2,3
				s-5.4-1.2-7.2-3c-1.9-1.9-3-4.4-3-7.2s1.2-5.4,3-7.2c1.8-1.9,4.4-3,7.2-3s5.4,1.2,7.2,3c1.9,1.9,3,4.4,3,7.2
				S-279.9,280.4-281.7,282.2z"/>
		</g>
	</g>
	<polygon class="st2" points="-288.4,268.9 -286.8,272.4 -283.1,273.4 -285.7,276.6 -285.2,280 -289.8,278.3 -292.6,280 
		-292.4,276.4 -294.8,273.4 -291.9,273 	"/>
	<polygon class="st2" points="-284.9,290.8 -278.7,301.4 -277.3,296.1 -271.4,297.7 -278.6,286.2 	"/>
	<polygon class="st2" points="-300.1,285.8 -306.2,297.3 -300.7,295.7 -299.5,301.7 -293.1,290.2 	"/>
</g>
</svg>
