<?xml version="1.0" encoding="utf-8"?>
<!-- Generator: Adobe Illustrator 19.1.1, SVG Export Plug-In . SVG Version: 6.00 Build 0)  -->
<svg version="1.1" id="Layer_1" xmlns:sketch="http://www.bohemiancoding.com/sketch/ns"
	 xmlns="http://www.w3.org/2000/svg" xmlns:xlink="http://www.w3.org/1999/xlink" x="0px" y="0px" viewBox="-331 239 84 84"
	 style="enable-background:new -331 239 84 84;" xml:space="preserve">
<style type="text/css">
	.st0{fill:#EEEEEE;stroke:#FFFFFF;stroke-width:4;}
	.st1{fill:none;stroke:#F2EDED;}
	.st2{fill:#005EB8;}
	.st3{fill:none;stroke:#005EB8;stroke-width:3;stroke-miterlimit:10;}
	.st4{fill:#020202;}
	.st5{fill:#005EB8;stroke:#005EB8;stroke-width:0.5;stroke-miterlimit:10;}
	.st6{fill:#005EB8;stroke:#EEEEEE;stroke-width:3;stroke-miterlimit:10;}
</style>
<g id="Rectangle-290">
	<g sketch:type="MSShapeGroup">
		<path id="path-1" class="st0" d="M-290,240h2c22.1,0,40,17.9,40,40v2c0,22.1-17.9,40-40,40h-2c-22.1,0-40-17.9-40-40v-2
			C-330,257.9-312.1,240-290,240z"/>
	</g>
	<g>
		<path id="path-1_1_" class="st1" d="M-290,240h2c22.1,0,40,17.9,40,40v2c0,22.1-17.9,40-40,40h-2c-22.1,0-40-17.9-40-40v-2
			C-330,257.9-312.1,240-290,240z"/>
	</g>
</g>
<polygon class="st2" points="-313.1,289.4 -310.2,294 -278.3,294 -278.8,289.2 "/>
<g>
	<path class="st3" d="M-277.3,289.3h-29.3c-1.2,0-2.2-1-2.2-2.2v-19.3c0-1.2,1-2.2,2.2-2.2h29.3c1.2,0,2.2,1,2.2,2.2v19.3
		C-275.1,288.3-276.1,289.3-277.3,289.3z"/>
	<path class="st4" d="M-287.4,296"/>
	<g>
		<path class="st5" d="M-296.4,281.6l-7.7-3.3v-1.1l7.7-3.9v1.9l-5.3,2.5l5.3,2.2V281.6z"/>
		<path class="st5" d="M-288.8,271.9l-4.2,11.3h-2.2l4.2-11.3H-288.8z"/>
		<path class="st5" d="M-287.4,279.7l5.3-2.2l-5.3-2.5v-1.8l7.7,3.9v1.1l-7.7,3.3V279.7z"/>
	</g>
	<path class="st3" d="M-273.6,293.6h-35.7c-2.1,0-3.8-1.7-3.8-3.8v-0.4h39.4v4.2H-273.6z"/>
	<circle class="st6" cx="-273.6" cy="291.1" r="10.1"/>
	<polyline class="st6" points="-278.3,291.5 -275,294 -269.3,288.1 	"/>
</g>
</svg>
